<?xml version="1.0" encoding="UTF-8"?>
<svg version="1.1" xmlns="http://www.w3.org/2000/svg" width="192" height="192">
<path d="M0 0 C2.18341574 0.00851187 4.36420341 -0.02037972 6.54736328 -0.05200195 C26.18907418 -0.14916493 47.20012874 6.5397496 62.31689453 19.44604492 C62.31689453 20.10604492 62.31689453 20.76604492 62.31689453 21.44604492 C62.87376953 21.69354492 63.43064453 21.94104492 64.00439453 22.19604492 C69.42644607 25.12688359 73.74113862 29.45718959 77.31689453 34.44604492 C77.31689453 35.10604492 77.31689453 35.76604492 77.31689453 36.44604492 C78.30689453 36.77604492 79.29689453 37.10604492 80.31689453 37.44604492 C93.58704777 53.0951612 98.88137955 74.11053967 98.76293945 94.12915039 C98.75442759 96.31256613 98.78331917 98.4933538 98.81494141 100.67651367 C98.91210439 120.31822458 92.22318985 141.32927913 79.31689453 156.44604492 C78.65689453 156.44604492 77.99689453 156.44604492 77.31689453 156.44604492 C77.06939453 157.00291992 76.82189453 157.55979492 76.56689453 158.13354492 C73.63605586 163.55559646 69.30574986 167.87028901 64.31689453 171.44604492 C63.65689453 171.44604492 62.99689453 171.44604492 62.31689453 171.44604492 C61.98689453 172.43604492 61.65689453 173.42604492 61.31689453 174.44604492 C45.66777825 187.71619816 24.65239978 193.01052994 4.63378906 192.89208984 C2.45037333 192.88357798 0.26958565 192.91246956 -1.91357422 192.9440918 C-21.55528512 193.04125478 -42.56633968 186.35234024 -57.68310547 173.44604492 C-57.68310547 172.78604492 -57.68310547 172.12604492 -57.68310547 171.44604492 C-58.23998047 171.19854492 -58.79685547 170.95104492 -59.37060547 170.69604492 C-64.79265701 167.76520625 -69.10734955 163.43490025 -72.68310547 158.44604492 C-72.68310547 157.78604492 -72.68310547 157.12604492 -72.68310547 156.44604492 C-73.67310547 156.11604492 -74.66310547 155.78604492 -75.68310547 155.44604492 C-88.9532587 139.79692864 -94.24759049 118.78155017 -94.12915039 98.76293945 C-94.12063852 96.57952372 -94.14953011 94.39873604 -94.18115234 92.21557617 C-94.27831533 72.57386527 -87.58940079 51.56281071 -74.68310547 36.44604492 C-74.02310547 36.44604492 -73.36310547 36.44604492 -72.68310547 36.44604492 C-72.43560547 35.88916992 -72.18810547 35.33229492 -71.93310547 34.75854492 C-69.0022668 29.33649338 -64.6719608 25.02180084 -59.68310547 21.44604492 C-59.02310547 21.44604492 -58.36310547 21.44604492 -57.68310547 21.44604492 C-57.18810547 19.96104492 -57.18810547 19.96104492 -56.68310547 18.44604492 C-41.03398919 5.17589169 -20.01861072 -0.11844009 0 0 Z " fill="#FEFEFE" transform="translate(93.68310546875,-0.446044921875)"/>
<path d="M0 0 C24.2 0 24.2 0 33 7 C37.62064635 13.03251051 39.3928738 18.12598851 39.375 25.6875 C39.37258301 26.74771362 39.37258301 26.74771362 39.37011719 27.8293457 C39.1832059 35.85828504 36.88905044 43.27920814 31 49 C21.49321484 55.83372821 11.92949406 54 0 54 C0 36.18 0 18.36 0 0 Z " fill="#0C0C0C" transform="translate(53,69)"/>
<path d="M0 0 C25.56 0 25.56 0 32.3125 4.5625 C35.00284651 8.44855607 34.63139032 12.42427718 34 17 C32.625 19.9375 32.625 19.9375 31 22 C30.34 22.99 29.68 23.98 29 25 C29.78375 25.5775 30.5675 26.155 31.375 26.75 C35.29460979 30.10966554 35.89506826 31.69884645 36.3125 36.875 C36.16516671 41.54633202 34.89903826 44.9809076 31.640625 48.4453125 C22.93657584 56.29690323 11.25657248 53 0 53 C0 35.51 0 18.02 0 0 Z " fill="#0A0A0A" transform="translate(103,70)"/>
<path d="M0 0 C14.11620795 0 14.11620795 0 20 4 C26.15107888 11.53507163 25.62666283 19.77261688 25 29 C23.8670927 33.90685965 21.52986324 36.95527937 17.5625 40 C13 42 13 42 0 42 C0 28.14 0 14.28 0 0 Z " fill="#F6F6F6" transform="translate(60,75)"/>
<path d="M0 0 C3.8053125 -0.12375 3.8053125 -0.12375 7.6875 -0.25 C8.87218872 -0.30462402 8.87218872 -0.30462402 10.08081055 -0.36035156 C13.90260839 -0.42027101 15.63709783 -0.23202728 18.95703125 1.890625 C21.3979784 4.4109146 21.93955098 5.31994849 22.25 8.8125 C21.9670624 12.41995442 21.15434322 14.12754237 19 17 C15.20548348 19.52967768 12.18802503 19.22360092 7.8125 19.125 C3.9453125 19.063125 3.9453125 19.063125 0 19 C0 12.73 0 6.46 0 0 Z " fill="#FAFAFA" transform="translate(110,98)"/>
<path d="M0 0 C14.28883848 -0.40440109 14.28883848 -0.40440109 20 3 C21.82793089 4.82793089 21.34619549 7.35280095 21.5234375 9.796875 C20.66689015 13.40204446 18.9215014 14.8022082 16 17 C13.188348 17.58258809 10.54279055 17.47706586 7.6875 17.3125 C5.150625 17.209375 2.61375 17.10625 0 17 C0 11.39 0 5.78 0 0 Z " fill="#F1F1F1" transform="translate(109,75)"/>
</svg>
