<?xml version="1.0" standalone="no"?>
<!DOCTYPE svg PUBLIC "-//W3C//DTD SVG 20010904//EN"
 "http://www.w3.org/TR/2001/REC-SVG-20010904/DTD/svg10.dtd">
<svg version="1.0" xmlns="http://www.w3.org/2000/svg"
 width="1600.000000pt" height="896.000000pt" viewBox="0 0 1600.000000 896.000000"
 preserveAspectRatio="xMidYMid meet">

<g transform="translate(0.000000,896.000000) scale(0.100000,-0.100000)"
fill="#000000" stroke="none">
<path d="M7940 7268 c0 -22 4 -23 85 -23 81 0 85 1 85 23 0 17 -6 22 -24 22
-14 0 -28 -4 -31 -10 -3 -5 -22 -10 -41 -10 -19 0 -34 5 -34 10 0 6 -9 10 -20
10 -14 0 -20 -7 -20 -22z"/>
<path d="M8180 7266 c0 -19 5 -26 19 -26 10 0 22 7 25 16 8 20 8 19 -21 28
-20 6 -23 4 -23 -18z"/>
<path d="M7830 7260 c0 -11 7 -20 15 -20 8 0 15 9 15 20 0 11 -7 20 -15 20 -8
0 -15 -9 -15 -20z"/>
<path d="M7706 7255 c4 -8 12 -15 20 -15 8 0 14 7 14 15 0 8 -9 15 -20 15 -13
0 -18 -5 -14 -15z"/>
<path d="M8300 7250 c0 -17 7 -20 40 -20 45 0 57 23 18 34 -42 11 -58 7 -58
-14z"/>
<path d="M8570 7220 c0 -5 5 -10 10 -10 6 0 10 5 10 10 0 6 -4 10 -10 10 -5 0
-10 -4 -10 -10z"/>
<path d="M8656 7204 c-10 -25 -7 -34 9 -34 9 0 15 9 15 25 0 28 -15 34 -24 9z"/>
<path d="M7820 7164 c0 -14 4 -23 10 -19 6 3 10 15 10 26 0 10 -4 19 -10 19
-5 0 -10 -12 -10 -26z"/>
<path d="M8770 7172 c0 -15 9 -21 33 -25 18 -2 35 0 39 7 10 15 -1 23 -39 31
-28 6 -33 4 -33 -13z"/>
<path d="M8157 7166 c-6 -15 1 -26 15 -26 4 0 8 9 8 20 0 23 -15 27 -23 6z"/>
<path d="M8260 7154 c0 -16 8 -19 50 -21 37 -1 50 3 50 13 0 9 -11 14 -27 14
-16 0 -38 3 -50 6 -18 5 -23 2 -23 -12z"/>
<path d="M7565 7151 c-29 -6 -44 -37 -17 -35 6 1 23 2 37 3 14 0 25 7 25 15 0
20 -10 23 -45 17z"/>
<path d="M8423 7144 c-7 -19 -5 -21 40 -29 30 -6 37 -4 37 9 0 9 -1 16 -3 16
-1 0 -17 4 -35 9 -26 8 -34 7 -39 -5z"/>
<path d="M7410 7106 c0 -19 4 -22 25 -18 16 3 25 11 25 23 0 14 -7 19 -25 19
-20 0 -25 -5 -25 -24z"/>
<path d="M8560 7106 c0 -11 40 -26 71 -26 24 0 5 28 -22 34 -44 9 -49 8 -49
-8z"/>
<path d="M7280 7093 c0 -4 4 -14 9 -22 11 -17 45 -7 39 12 -5 13 -48 23 -48
10z"/>
<path d="M9053 7074 c-8 -21 13 -42 28 -27 13 13 5 43 -11 43 -6 0 -13 -7 -17
-16z"/>
<path d="M7173 7065 c-22 -6 -33 -15 -33 -28 0 -16 5 -18 33 -12 39 9 47 15
38 35 -5 12 -13 13 -38 5z"/>
<path d="M8834 7059 c-3 -6 -1 -16 5 -22 9 -9 14 -8 21 3 5 8 10 18 10 23 0
11 -28 8 -36 -4z"/>
<path d="M7797 7053 c-29 -3 -37 -8 -35 -21 2 -9 9 -17 16 -16 6 1 26 2 42 3
23 1 30 6 30 21 0 11 -3 19 -7 18 -5 -1 -25 -3 -46 -5z"/>
<path d="M7932 7043 c2 -12 14 -19 36 -21 27 -3 32 0 32 17 0 17 -6 21 -36 21
-28 0 -35 -3 -32 -17z"/>
<path d="M7646 7032 c-2 -4 -1 -14 3 -21 11 -17 51 -5 51 15 0 15 -45 20 -54
6z"/>
<path d="M8110 7028 c0 -9 18 -13 57 -13 36 0 58 4 60 13 4 9 -12 12 -56 12
-42 0 -61 -4 -61 -12z"/>
<path d="M9164 7029 c-8 -13 2 -22 44 -39 23 -9 36 -10 44 -2 7 7 -2 16 -30
31 -48 24 -49 24 -58 10z"/>
<path d="M7036 7021 c-8 -12 3 -41 15 -41 12 0 12 37 0 45 -5 3 -12 1 -15 -4z"/>
<path d="M8300 7015 c0 -8 7 -15 15 -15 8 0 15 7 15 15 0 8 -7 15 -15 15 -8 0
-15 -7 -15 -15z"/>
<path d="M7540 7006 c0 -9 7 -16 16 -16 9 0 14 5 12 12 -6 18 -28 21 -28 4z"/>
<path d="M8950 7005 c0 -8 7 -15 15 -15 8 0 15 7 15 15 0 8 -7 15 -15 15 -8 0
-15 -7 -15 -15z"/>
<path d="M7470 6990 c0 -11 5 -20 10 -20 6 0 10 9 10 20 0 11 -4 20 -10 20 -5
0 -10 -9 -10 -20z"/>
<path d="M8425 7000 c3 -5 13 -10 21 -10 8 0 14 5 14 10 0 6 -9 10 -21 10 -11
0 -17 -4 -14 -10z"/>
<path d="M7410 6986 c0 -8 5 -18 10 -21 6 -3 10 3 10 14 0 12 -4 21 -10 21 -5
0 -10 -6 -10 -14z"/>
<path d="M8500 6991 c0 -10 10 -14 63 -25 34 -8 39 19 5 28 -34 9 -68 7 -68
-3z"/>
<path d="M7341 6963 c7 -10 15 -20 16 -22 2 -2 3 5 3 17 0 14 -6 22 -16 22
-14 0 -15 -3 -3 -17z"/>
<path d="M9060 6965 c0 -8 7 -15 15 -15 8 0 15 7 15 15 0 8 -7 15 -15 15 -8 0
-15 -7 -15 -15z"/>
<path d="M9295 6969 c-4 -6 -5 -11 -4 -12 2 -1 14 -8 26 -14 29 -17 43 -16 43
0 0 8 -11 19 -25 25 -32 15 -32 15 -40 1z"/>
<path d="M8650 6956 c0 -7 15 -16 33 -20 17 -3 44 -9 60 -12 20 -5 27 -3 27 9
0 9 -17 19 -44 26 -59 14 -76 14 -76 -3z"/>
<path d="M7830 6951 c-61 -6 -65 -7 -68 -33 l-3 -27 93 5 c129 7 138 10 138
39 0 23 -3 25 -47 23 -27 -1 -77 -4 -113 -7z"/>
<path d="M7565 6916 c-66 -13 -165 -36 -220 -51 -101 -27 -315 -102 -326 -114
-4 -3 -3 -16 1 -28 9 -21 9 -21 137 24 147 51 359 107 474 124 77 12 79 13 79
41 0 33 8 33 -145 4z"/>
<path d="M8105 6920 c3 -5 15 -10 26 -10 10 0 19 5 19 10 0 6 -12 10 -26 10
-14 0 -23 -4 -19 -10z"/>
<path d="M8215 6920 c-4 -6 7 -10 24 -10 17 0 31 5 31 10 0 6 -11 10 -24 10
-14 0 -28 -4 -31 -10z"/>
<path d="M8830 6915 c0 -8 5 -15 10 -15 6 0 10 7 10 15 0 8 -4 15 -10 15 -5 0
-10 -7 -10 -15z"/>
<path d="M9167 6923 c-12 -11 -8 -22 14 -34 31 -16 50 5 23 26 -22 16 -28 18
-37 8z"/>
<path d="M7162 6908 c6 -18 28 -21 28 -4 0 9 -7 16 -16 16 -9 0 -14 -5 -12
-12z"/>
<path d="M8340 6905 c0 -8 7 -15 15 -15 8 0 15 7 15 15 0 8 -7 15 -15 15 -8 0
-15 -7 -15 -15z"/>
<path d="M9435 6899 c-4 -11 -4 -23 0 -27 7 -7 25 17 25 36 0 20 -18 14 -25
-9z"/>
<path d="M8425 6900 c-3 -6 1 -13 10 -16 19 -8 30 0 20 15 -8 14 -22 14 -30 1z"/>
<path d="M8900 6891 c0 -5 14 -17 32 -25 36 -19 38 -19 38 -7 0 5 -14 17 -32
25 -36 19 -38 19 -38 7z"/>
<path d="M8530 6882 c0 -12 69 -32 75 -22 3 4 -9 13 -27 19 -37 13 -48 14 -48
3z"/>
<path d="M7008 6873 c-19 -5 -25 -33 -7 -33 19 0 50 21 44 31 -6 9 -9 10 -37
2z"/>
<path d="M7804 6853 c-38 -4 -40 -6 -36 -31 4 -27 4 -27 80 -24 125 4 142 9
142 37 0 24 -2 25 -72 23 -40 -1 -91 -3 -114 -5z"/>
<path d="M8680 6842 c0 -5 11 -12 25 -14 14 -3 25 -1 25 3 0 5 -4 9 -9 9 -5 0
-16 3 -25 6 -9 3 -16 2 -16 -4z"/>
<path d="M7625 6829 c-167 -24 -575 -148 -575 -174 0 -6 6 -19 13 -27 11 -15
17 -15 72 8 125 52 475 143 553 144 29 0 32 3 32 30 0 33 2 33 -95 19z"/>
<path d="M6876 6817 c-16 -12 -14 -47 3 -47 19 0 44 29 38 44 -8 19 -17 20
-41 3z"/>
<path d="M8110 6821 c0 -13 38 -21 104 -21 86 0 274 -29 369 -56 9 -3 17 -1
17 5 0 20 -167 53 -360 70 -139 13 -130 13 -130 2z"/>
<path d="M9386 6804 c-8 -22 -8 -24 8 -24 19 0 28 27 11 34 -7 2 -16 -2 -19
-10z"/>
<path d="M9591 6806 c2 -10 15 -26 28 -34 22 -15 23 -15 20 2 -2 10 -15 26
-28 34 -22 15 -23 15 -20 -2z"/>
<path d="M8810 6800 c20 -13 43 -13 35 0 -3 6 -16 10 -28 10 -18 0 -19 -2 -7
-10z"/>
<path d="M9090 6805 c0 -9 62 -36 68 -30 9 9 -28 35 -50 35 -10 0 -18 -2 -18
-5z"/>
<path d="M6768 6764 c-27 -14 -35 -33 -22 -47 5 -5 26 5 62 29 2 1 0 9 -5 17
-7 13 -11 13 -35 1z"/>
<path d="M8940 6755 c14 -7 27 -11 30 -9 6 7 -22 24 -40 23 -9 0 -5 -6 10 -14z"/>
<path d="M9220 6745 c0 -15 117 -81 127 -71 10 10 -10 27 -68 56 -46 24 -59
27 -59 15z"/>
<path d="M7855 6741 c-68 -6 -70 -7 -73 -35 -3 -28 -2 -29 28 -22 18 3 66 6
106 6 l74 0 0 30 c0 34 7 32 -135 21z"/>
<path d="M8640 6740 c0 -5 7 -10 16 -10 8 0 12 5 9 10 -3 6 -10 10 -16 10 -5
0 -9 -4 -9 -10z"/>
<path d="M9689 6724 c-6 -8 -10 -16 -8 -17 2 -1 18 -12 36 -24 27 -19 33 -20
44 -7 6 8 10 16 8 17 -2 1 -18 12 -36 24 -27 19 -33 20 -44 7z"/>
<path d="M7599 6710 c-100 -17 -317 -72 -344 -88 -20 -12 1 -56 23 -47 50 19
245 67 339 83 101 17 108 20 108 42 0 13 -4 24 -10 26 -5 1 -58 -6 -116 -16z"/>
<path d="M8100 6702 l0 -28 135 -12 c259 -24 485 -81 691 -176 70 -33 75 -34
84 -16 5 10 10 23 10 28 0 14 -151 80 -283 123 -145 48 -324 84 -484 98 -162
15 -153 16 -153 -17z"/>
<path d="M8710 6721 c0 -8 52 -31 71 -31 21 0 6 19 -22 29 -39 13 -49 14 -49
2z"/>
<path d="M9037 6722 c-6 -9 62 -42 68 -32 2 3 -11 14 -30 23 -19 9 -36 13 -38
9z"/>
<path d="M6906 6705 c-10 -7 -15 -18 -11 -24 14 -24 59 -4 49 22 -7 20 -13 21
-38 2z"/>
<path d="M6663 6694 c-3 -8 -1 -20 6 -27 25 -25 8 -45 -93 -110 -160 -104
-249 -177 -396 -327 -143 -144 -259 -290 -347 -437 -29 -48 -57 -95 -62 -103
-5 -8 -12 -12 -16 -8 -15 15 137 256 244 387 33 41 41 58 34 70 -17 28 -29 22
-79 -41 -120 -151 -276 -399 -255 -406 6 -2 33 -15 59 -29 37 -20 48 -22 55
-11 4 7 31 52 60 101 116 195 328 443 506 591 94 79 251 186 332 226 l61 31
-26 32 c-15 18 -32 42 -38 55 -13 26 -36 29 -45 6z"/>
<path d="M8875 6660 c46 -21 55 -23 55 -12 0 9 -60 32 -81 31 -8 0 4 -9 26
-19z"/>
<path d="M6790 6651 c0 -20 17 -37 27 -28 7 8 -7 47 -18 47 -5 0 -9 -9 -9 -19z"/>
<path d="M9176 6651 c-8 -12 41 -47 51 -37 10 10 -11 40 -30 44 -8 2 -18 -1
-21 -7z"/>
<path d="M9626 6634 c-8 -22 -8 -24 6 -24 6 0 26 -11 45 -26 30 -23 53 -25 53
-5 0 7 -83 71 -93 71 -3 0 -8 -7 -11 -16z"/>
<path d="M6533 6621 c-26 -22 -29 -37 -10 -44 20 -8 61 28 54 47 -8 20 -17 20
-44 -3z"/>
<path d="M8100 6618 c0 -32 15 -38 92 -38 181 0 472 -70 704 -169 l69 -30 13
26 c8 13 12 26 10 27 -14 11 -222 90 -298 114 -133 43 -345 82 -477 89 l-113
6 0 -25z"/>
<path d="M7827 6623 c-13 -12 -7 -43 8 -43 9 0 15 9 15 25 0 24 -10 32 -23 18z"/>
<path d="M7940 6610 c0 -15 7 -20 25 -20 18 0 25 5 25 20 0 15 -7 20 -25 20
-18 0 -25 -5 -25 -20z"/>
<path d="M8980 6620 c0 -5 16 -17 36 -25 43 -18 44 -18 44 -4 0 5 -16 17 -35
25 -41 17 -45 17 -45 4z"/>
<path d="M6955 6606 c-10 -7 -15 -18 -11 -24 9 -15 18 -15 40 1 15 11 16 15 4
25 -11 9 -19 9 -33 -2z"/>
<path d="M7630 6580 c0 -16 5 -30 10 -30 6 0 10 14 10 30 0 17 -4 30 -10 30
-5 0 -10 -13 -10 -30z"/>
<path d="M7694 6594 c3 -9 6 -20 6 -25 0 -5 5 -9 10 -9 6 0 10 11 10 25 0 16
-6 25 -16 25 -11 0 -14 -5 -10 -16z"/>
<path d="M9456 6601 c-4 -7 -5 -15 -2 -18 9 -9 19 4 14 18 -4 11 -6 11 -12 0z"/>
<path d="M9902 6560 c-20 -32 -14 -46 10 -22 15 14 19 25 12 32 -6 6 -14 3
-22 -10z"/>
<path d="M9115 6560 c9 -15 65 -42 65 -31 0 10 -45 41 -60 41 -6 0 -8 -5 -5
-10z"/>
<path d="M6062 6541 c-20 -18 -22 -51 -3 -51 15 0 53 49 46 59 -9 15 -16 13
-43 -8z"/>
<path d="M6852 6539 c2 -7 10 -15 17 -17 8 -3 12 1 9 9 -2 7 -10 15 -17 17 -8
3 -12 -1 -9 -9z"/>
<path d="M7100 6538 c0 -7 4 -19 9 -27 8 -12 12 -13 25 -2 12 11 14 17 5 27
-14 17 -39 18 -39 2z"/>
<path d="M9744 6539 c-7 -12 43 -58 64 -59 19 0 14 14 -16 43 -31 30 -38 32
-48 16z"/>
<path d="M9410 6532 c0 -10 22 -32 32 -32 15 0 8 15 -12 28 -11 7 -20 9 -20 4z"/>
<path d="M6171 6516 c-9 -10 -8 -16 4 -26 21 -17 51 6 34 26 -6 8 -15 14 -19
14 -4 0 -13 -6 -19 -14z"/>
<path d="M9586 6522 c-7 -11 4 -24 36 -45 33 -21 38 -21 38 -3 0 8 -13 24 -29
35 -32 23 -38 25 -45 13z"/>
<path d="M7360 6505 c0 -8 7 -15 15 -15 8 0 15 7 15 15 0 8 -7 15 -15 15 -8 0
-15 -7 -15 -15z"/>
<path d="M9963 6503 c-4 -10 -1 -19 8 -22 20 -6 129 -112 164 -160 30 -40 55
-53 55 -28 0 14 -200 227 -213 227 -4 0 -11 -8 -14 -17z"/>
<path d="M6753 6498 c-22 -11 -29 -28 -17 -41 11 -11 54 16 54 35 0 20 -5 21
-37 6z"/>
<path d="M6994 6499 c-10 -17 13 -36 27 -22 12 12 4 33 -11 33 -5 0 -12 -5
-16 -11z"/>
<path d="M7320 6485 c0 -8 5 -15 10 -15 6 0 10 7 10 15 0 8 -4 15 -10 15 -5 0
-10 -7 -10 -15z"/>
<path d="M9061 6461 c-6 -11 -11 -22 -11 -24 0 -3 29 -22 65 -42 414 -231 757
-615 955 -1070 29 -66 55 -123 59 -127 3 -4 16 -1 28 5 l21 12 -42 105 c-114
283 -312 572 -545 792 -157 149 -366 298 -513 366 -4 2 -11 -6 -17 -17z"/>
<path d="M9280 6471 c0 -6 30 -32 68 -58 121 -85 225 -167 284 -222 37 -35 58
-48 58 -38 0 9 -21 33 -46 54 -26 21 -72 60 -103 87 -47 40 -205 155 -248 180
-7 4 -13 3 -13 -3z"/>
<path d="M9836 6464 c-7 -19 1 -34 19 -34 21 0 28 19 15 35 -16 19 -26 19 -34
-1z"/>
<path d="M7190 6462 c0 -5 6 -16 13 -27 16 -20 31 -7 21 19 -6 16 -34 23 -34
8z"/>
<path d="M9496 6461 c-3 -5 1 -11 9 -15 8 -3 15 -1 15 4 0 13 -18 22 -24 11z"/>
<path d="M6100 6445 c-10 -12 -10 -18 0 -30 12 -14 15 -14 31 1 14 13 16 20 8
31 -15 17 -24 17 -39 -2z"/>
<path d="M9704 6436 c-6 -15 29 -55 49 -56 16 0 6 28 -18 50 -22 20 -25 21
-31 6z"/>
<path d="M7117 6434 c-9 -10 4 -34 19 -34 16 0 16 2 8 24 -6 17 -16 20 -27 10z"/>
<path d="M6905 6420 c3 -5 8 -10 11 -10 2 0 4 5 4 10 0 6 -5 10 -11 10 -5 0
-7 -4 -4 -10z"/>
<path d="M7057 6413 c-8 -7 11 -43 22 -43 10 0 3 38 -9 45 -4 2 -10 2 -13 -2z"/>
<path d="M5906 6391 c-17 -18 -17 -20 0 -29 25 -14 69 15 53 34 -16 19 -33 17
-53 -5z"/>
<path d="M6805 6397 c-11 -9 -16 -20 -12 -30 5 -14 10 -15 32 -5 14 6 24 18
23 26 -4 21 -21 25 -43 9z"/>
<path d="M9022 6385 c-10 -22 -9 -27 11 -38 149 -89 196 -120 277 -180 111
-83 319 -288 407 -402 121 -155 231 -348 303 -530 70 -175 140 -478 140 -605
0 -25 4 -50 8 -56 7 -11 39 -11 50 1 10 10 -17 223 -44 345 -69 311 -215 623
-419 891 -79 103 -301 319 -418 406 -89 66 -287 193 -300 193 -2 0 -9 -11 -15
-25z"/>
<path d="M9943 6378 c-9 -10 -3 -22 22 -50 29 -31 36 -34 46 -22 10 13 6 21
-23 50 -27 28 -37 33 -45 22z"/>
<path d="M9600 6364 c0 -8 5 -12 10 -9 6 3 10 10 10 16 0 5 -4 9 -10 9 -5 0
-10 -7 -10 -16z"/>
<path d="M6962 6349 c1 -12 9 -24 16 -27 9 -3 13 3 10 19 -1 12 -9 24 -16 27
-9 3 -13 -3 -10 -19z"/>
<path d="M7997 6357 c-3 -8 -2 -20 3 -27 11 -18 42 -4 38 17 -4 22 -34 29 -41
10z"/>
<path d="M9790 6363 c0 -5 7 -16 15 -27 19 -24 39 -12 22 14 -11 19 -37 28
-37 13z"/>
<path d="M5856 6314 c-4 -9 -5 -19 -3 -21 8 -7 38 10 34 20 -6 18 -24 19 -31
1z"/>
<path d="M9667 6322 c-3 -4 3 -13 14 -20 10 -7 19 -8 19 -3 0 13 -28 33 -33
23z"/>
<path d="M6861 6301 c-17 -11 -7 -41 13 -41 22 0 30 20 15 36 -9 8 -19 10 -28
5z"/>
<path d="M5925 6270 c-4 -6 -3 -16 3 -22 6 -6 12 -6 17 2 4 6 3 16 -3 22 -6 6
-12 6 -17 -2z"/>
<path d="M9870 6266 c0 -8 14 -19 30 -25 35 -12 39 -3 10 22 -24 21 -40 22
-40 3z"/>
<path d="M9742 6249 c2 -7 10 -15 17 -17 8 -3 12 1 9 9 -2 7 -10 15 -17 17 -8
3 -12 -1 -9 -9z"/>
<path d="M10056 6251 c-3 -5 1 -14 8 -20 16 -13 32 2 21 19 -8 12 -22 13 -29
1z"/>
<path d="M6590 6214 c0 -9 5 -14 12 -12 18 6 21 28 4 28 -9 0 -16 -7 -16 -16z"/>
<path d="M6746 6191 c-4 -5 -2 -12 3 -15 5 -4 12 -2 15 3 4 5 2 12 -3 15 -5 4
-12 2 -15 -3z"/>
<path d="M9804 6189 c-8 -14 11 -33 25 -25 11 7 4 36 -9 36 -5 0 -12 -5 -16
-11z"/>
<path d="M5855 6179 c-10 -15 1 -23 20 -15 9 3 13 10 10 16 -8 13 -22 13 -30
-1z"/>
<path d="M10260 6183 c0 -5 4 -15 10 -23 11 -18 25 -7 17 15 -6 15 -27 21 -27
8z"/>
<path d="M9983 6164 c-8 -21 27 -56 46 -45 11 7 10 13 -5 35 -22 30 -32 32
-41 10z"/>
<path d="M5720 6155 c0 -10 7 -15 18 -13 21 4 19 22 -2 26 -10 2 -16 -3 -16
-13z"/>
<path d="M6646 6144 c-7 -19 1 -34 19 -34 21 0 28 19 15 35 -16 19 -26 19 -34
-1z"/>
<path d="M10194 6129 c-7 -12 15 -31 28 -23 9 6 -1 34 -12 34 -5 0 -12 -5 -16
-11z"/>
<path d="M6467 6118 c-11 -9 -14 -18 -8 -27 8 -12 12 -12 25 -2 17 14 22 41 8
41 -5 0 -16 -6 -25 -12z"/>
<path d="M9720 6105 c-7 -8 -11 -15 -9 -16 31 -6 40 -6 44 1 3 4 -1 13 -9 19
-10 9 -16 8 -26 -4z"/>
<path d="M9870 6110 c0 -5 7 -10 15 -10 8 0 15 5 15 10 0 6 -7 10 -15 10 -8 0
-15 -4 -15 -10z"/>
<path d="M5782 6098 c3 -7 13 -15 22 -16 12 -3 17 1 14 10 -3 7 -13 15 -22 16
-12 3 -17 -1 -14 -10z"/>
<path d="M5651 6066 c-10 -11 -10 -20 -1 -37 l12 -21 21 20 c17 17 18 23 7 36
-16 20 -24 20 -39 2z"/>
<path d="M6545 6071 c-8 -13 3 -51 14 -51 5 0 14 6 20 13 8 11 6 18 -8 31 -13
11 -21 14 -26 7z"/>
<path d="M6235 6061 c-6 -11 9 -23 19 -14 9 9 7 23 -3 23 -6 0 -12 -4 -16 -9z"/>
<path d="M7800 6063 c-393 -64 -705 -224 -965 -495 -206 -213 -343 -467 -413
-763 -25 -102 -27 -126 -26 -340 0 -254 9 -321 74 -515 150 -450 513 -827 972
-1009 271 -107 606 -134 904 -71 312 65 589 215 815 439 135 135 222 253 304
412 188 366 232 751 129 1145 -159 614 -680 1084 -1319 1189 -83 14 -407 19
-475 8z m480 -60 c572 -94 1054 -502 1235 -1047 61 -183 78 -289 79 -491 0
-210 -15 -309 -74 -486 -164 -493 -546 -871 -1035 -1023 -424 -132 -890 -78
-1263 146 -136 81 -181 116 -316 247 -224 217 -372 489 -442 811 -27 122 -27
477 0 600 71 330 225 604 468 835 356 339 854 490 1348 408z"/>
<path d="M6870 4472 l0 -771 58 -7 c93 -11 478 3 568 21 291 61 474 268 525
598 16 106 6 320 -19 418 -52 194 -172 349 -332 428 -132 64 -184 72 -512 78
l-288 5 0 -770z m591 498 c74 -25 101 -41 157 -94 54 -50 99 -137 118 -225 18
-85 18 -277 0 -362 -32 -152 -126 -275 -241 -318 -65 -24 -206 -43 -290 -39
l-60 4 -3 527 -2 527 130 0 c105 0 142 -4 191 -20z"/>
<path d="M8282 4468 l3 -773 200 -3 c240 -4 442 11 518 37 173 60 271 175 298
351 10 63 9 88 -4 154 -29 141 -105 223 -252 271 -17 6 -13 10 26 30 61 31
123 104 146 168 23 68 23 194 0 263 -38 112 -121 196 -230 234 -84 30 -203 40
-464 40 l-243 0 2 -772z m615 498 c72 -44 98 -162 56 -257 -38 -87 -96 -109
-279 -109 l-134 0 0 193 c0 107 2 196 4 198 2 2 76 2 163 -1 132 -4 163 -8
190 -24z m49 -622 c74 -45 95 -90 92 -190 -4 -104 -31 -149 -113 -190 -55 -26
-63 -27 -218 -28 l-162 -1 -3 210 c-1 115 0 216 3 223 4 12 37 14 179 10 172
-3 173 -3 222 -34z"/>
<path d="M9927 6063 c-14 -13 -6 -33 13 -33 11 0 20 4 20 9 0 13 -26 32 -33
24z"/>
<path d="M10072 6058 c-8 -10 -6 -20 8 -38 17 -23 21 -24 35 -9 14 14 13 17
-8 37 -19 18 -26 20 -35 10z"/>
<path d="M6335 6020 c-17 -18 -17 -22 -4 -36 14 -13 17 -12 34 6 17 18 17 22
4 36 -14 13 -17 12 -34 -6z"/>
<path d="M5722 6018 c5 -15 28 -18 29 -3 0 6 -7 12 -17 13 -10 3 -15 -1 -12
-10z"/>
<path d="M6170 5975 c0 -9 5 -15 11 -13 6 2 11 8 11 13 0 5 -5 11 -11 13 -6 2
-11 -4 -11 -13z"/>
<path d="M9839 5974 c-11 -14 -10 -16 9 -12 13 1 23 7 23 13 1 17 -17 16 -32
-1z"/>
<path d="M9994 5954 c3 -9 6 -18 6 -20 0 -2 7 -4 15 -4 18 0 19 12 3 28 -17
17 -31 15 -24 -4z"/>
<path d="M6419 5939 c-16 -32 4 -48 31 -24 15 14 17 21 9 32 -16 18 -26 16
-40 -8z"/>
<path d="M5552 5909 c-19 -29 2 -52 21 -24 8 10 19 15 25 11 19 -11 14 5 -5
20 -24 18 -26 17 -41 -7z"/>
<path d="M6116 5913 c-11 -11 -6 -23 9 -23 8 0 15 4 15 9 0 13 -16 22 -24 14z"/>
<path d="M9907 5892 c-13 -14 -14 -21 -5 -30 16 -16 33 -15 47 1 8 11 7 18 -7
31 -18 15 -20 15 -35 -2z"/>
<path d="M10173 5903 c-21 -8 -16 -23 43 -122 100 -167 215 -429 265 -601 51
-175 99 -452 99 -567 0 -42 1 -43 31 -43 l32 0 -7 88 c-20 259 -82 520 -181
767 -63 157 -97 225 -184 372 -64 109 -71 117 -98 106z"/>
<path d="M10072 5888 c-19 -19 -15 -28 39 -113 214 -333 341 -719 374 -1137 6
-75 8 -78 32 -78 l26 0 -6 123 c-15 341 -148 745 -357 1092 -58 96 -91 130
-108 113z"/>
<path d="M5630 5849 c0 -11 5 -17 10 -14 6 3 10 13 10 21 0 8 -4 14 -10 14 -5
0 -10 -9 -10 -21z"/>
<path d="M6185 5820 c-19 -28 -25 -44 -18 -51 7 -7 20 2 42 29 17 22 31 45 31
51 0 24 -29 9 -55 -29z"/>
<path d="M6056 5831 c-19 -20 -21 -44 -4 -39 18 6 40 45 30 52 -5 3 -17 -3
-26 -13z"/>
<path d="M6278 5791 c-150 -189 -277 -423 -353 -654 -52 -159 -92 -347 -101
-475 -7 -87 -6 -90 15 -97 13 -4 24 -5 27 -2 2 2 11 62 19 133 44 378 193 743
428 1047 58 75 60 80 42 93 -10 8 -21 14 -24 14 -3 0 -27 -27 -53 -59z"/>
<path d="M9967 5816 c-17 -13 -15 -19 36 -97 208 -326 329 -682 362 -1071 6
-75 8 -78 32 -78 l26 0 -6 103 c-18 274 -107 590 -243 858 -63 124 -170 299
-183 299 -3 0 -14 -7 -24 -14z"/>
<path d="M5487 5785 c-12 -25 -13 -35 -4 -35 14 0 48 56 39 64 -11 12 -19 5
-35 -29z"/>
<path d="M10390 5810 c-12 -8 -12 -10 3 -16 21 -8 35 2 21 16 -5 5 -15 6 -24
0z"/>
<path d="M5569 5748 c-7 -13 -21 -38 -31 -56 -22 -39 -22 -38 -4 -45 11 -4 24
13 45 55 36 71 35 68 16 68 -8 0 -20 -10 -26 -22z"/>
<path d="M5980 5724 c-15 -24 -19 -39 -13 -45 11 -11 53 46 53 70 0 22 -19 11
-40 -25z"/>
<path d="M10525 5750 c-8 -13 24 -60 41 -60 17 0 18 11 2 45 -11 25 -32 33
-43 15z"/>
<path d="M10452 5711 c-10 -6 -11 -13 -1 -34 11 -25 39 -27 39 -3 0 22 -24 46
-38 37z"/>
<path d="M6042 5613 c-81 -137 -169 -330 -214 -467 -50 -155 -98 -415 -98
-528 0 -53 1 -55 25 -51 26 5 26 6 40 148 29 277 135 591 292 859 44 75 46 79
28 92 -10 8 -22 14 -26 14 -4 0 -25 -30 -47 -67z"/>
<path d="M5412 5645 c-11 -23 -10 -25 12 -25 15 0 26 7 29 19 10 39 -24 43
-41 6z"/>
<path d="M5920 5611 c-17 -33 -11 -48 10 -22 11 13 20 27 20 32 0 16 -19 9
-30 -10z"/>
<path d="M10500 5585 c0 -8 7 -15 15 -15 8 0 15 7 15 15 0 8 -7 15 -15 15 -8
0 -15 -7 -15 -15z"/>
<path d="M5630 5574 c0 -9 5 -14 12 -12 18 6 21 28 4 28 -9 0 -16 -7 -16 -16z"/>
<path d="M5742 5545 c-14 -31 -15 -45 -4 -45 9 0 32 44 32 60 0 19 -17 10 -28
-15z"/>
<path d="M5366 5524 c-9 -24 -7 -34 8 -34 13 0 26 20 26 41 0 15 -27 10 -34
-7z"/>
<path d="M5870 5520 c0 -5 5 -10 10 -10 6 0 10 5 10 10 0 6 -4 10 -10 10 -5 0
-10 -4 -10 -10z"/>
<path d="M10632 5514 c1 -9 9 -19 16 -22 9 -3 13 2 10 14 -1 9 -9 19 -16 22
-9 3 -13 -2 -10 -14z"/>
<path d="M5580 5464 c-16 -40 -6 -53 12 -16 9 18 12 34 7 38 -5 3 -14 -7 -19
-22z"/>
<path d="M5847 5477 c-11 -29 -9 -43 4 -30 6 6 9 19 7 29 -3 18 -4 18 -11 1z"/>
<path d="M6410 5475 c-15 -17 -5 -35 20 -35 22 0 33 23 17 39 -15 15 -22 14
-37 -4z"/>
<path d="M9587 5483 c-12 -12 -7 -41 7 -46 19 -8 38 16 30 37 -6 16 -25 21
-37 9z"/>
<path d="M10558 5455 c-8 -8 3 -55 13 -55 14 0 21 19 14 40 -6 20 -16 25 -27
15z"/>
<path d="M5672 5408 c5 -15 28 -18 29 -3 0 6 -7 12 -17 13 -10 3 -15 -1 -12
-10z"/>
<path d="M10668 5414 c-12 -11 17 -64 34 -64 21 0 21 -1 7 39 -10 28 -27 39
-41 25z"/>
<path d="M5791 5360 c-11 -33 2 -41 19 -11 12 24 13 41 1 41 -5 0 -14 -13 -20
-30z"/>
<path d="M5520 5330 c0 -5 6 -10 14 -10 8 0 18 5 21 10 3 6 -3 10 -14 10 -12
0 -21 -4 -21 -10z"/>
<path d="M5650 5305 c0 -9 5 -15 11 -13 6 2 11 8 11 13 0 5 -5 11 -11 13 -6 2
-11 -4 -11 -13z"/>
<path d="M10616 5301 c-8 -12 3 -41 15 -41 12 0 12 37 0 45 -5 3 -12 1 -15 -4z"/>
<path d="M5750 5271 c-14 -27 -13 -41 3 -41 11 0 37 39 37 55 0 14 -31 2 -40
-14z"/>
<path d="M5619 5235 c-4 -5 -9 -30 -13 -55 l-6 -45 16 34 c14 31 17 88 3 66z"/>
<path d="M5486 5204 c-4 -9 -4 -19 -2 -21 8 -8 26 8 26 23 0 19 -16 18 -24 -2z"/>
<path d="M10656 5154 c8 -47 11 -51 25 -37 14 14 -1 65 -20 71 -9 3 -11 -6 -5
-34z"/>
<path d="M10158 5163 c-10 -2 -18 -6 -18 -9 0 -2 13 -50 29 -106 31 -112 67
-304 76 -410 6 -57 9 -67 28 -72 12 -3 25 -2 30 3 28 28 -85 603 -117 600 -6
-1 -19 -3 -28 -6z"/>
<path d="M5720 5150 c0 -5 7 -10 15 -10 8 0 15 5 15 10 0 6 -7 10 -15 10 -8 0
-15 -4 -15 -10z"/>
<path d="M5222 5118 c2 -13 8 -23 13 -23 6 0 11 10 13 23 2 15 -2 22 -13 22
-11 0 -15 -7 -13 -22z"/>
<path d="M5460 5104 c0 -8 5 -12 10 -9 6 3 10 10 10 16 0 5 -4 9 -10 9 -5 0
-10 -7 -10 -16z"/>
<path d="M5566 5058 c-3 -13 -6 -32 -6 -42 0 -29 16 -7 23 32 7 36 -7 44 -17
10z"/>
<path d="M10780 5050 c0 -23 4 -30 20 -30 22 0 23 3 14 38 -9 33 -34 28 -34
-8z"/>
<path d="M5680 5040 c0 -5 7 -10 15 -10 8 0 15 5 15 10 0 6 -7 10 -15 10 -8 0
-15 -4 -15 -10z"/>
<path d="M5440 5033 c1 -18 18 -35 24 -24 4 6 4 16 1 21 -7 12 -25 13 -25 3z"/>
<path d="M5208 4990 c2 -16 8 -30 13 -30 5 0 9 14 9 30 0 18 -5 30 -13 30 -9
0 -12 -10 -9 -30z"/>
<path d="M5670 4990 c0 -11 7 -20 15 -20 17 0 18 2 9 24 -9 23 -24 20 -24 -4z"/>
<path d="M10708 4992 c-28 -6 -22 -32 7 -32 14 0 25 3 25 8 0 16 -16 28 -32
24z"/>
<path d="M5420 4935 c0 -9 5 -15 11 -13 6 2 11 8 11 13 0 5 -5 11 -11 13 -6 2
-11 -4 -11 -13z"/>
<path d="M5540 4915 c0 -8 5 -15 10 -15 6 0 10 7 10 15 0 8 -4 15 -10 15 -5 0
-10 -7 -10 -15z"/>
<path d="M5176 4863 c-8 -19 8 -38 23 -29 16 10 13 46 -3 46 -8 0 -17 -8 -20
-17z"/>
<path d="M5650 4855 c0 -14 5 -25 10 -25 6 0 10 11 10 25 0 14 -4 25 -10 25
-5 0 -10 -11 -10 -25z"/>
<path d="M5270 4830 c0 -20 5 -30 15 -30 10 0 15 10 15 30 0 20 -5 30 -15 30
-10 0 -15 -10 -15 -30z"/>
<path d="M5407 4854 c-8 -8 1 -24 14 -24 5 0 9 7 9 15 0 15 -12 20 -23 9z"/>
<path d="M5520 4840 c0 -11 5 -20 10 -20 6 0 10 9 10 20 0 11 -4 20 -10 20 -5
0 -10 -9 -10 -20z"/>
<path d="M10720 4840 c0 -11 7 -20 15 -20 8 0 15 9 15 20 0 11 -7 20 -15 20
-8 0 -15 -9 -15 -20z"/>
<path d="M5630 4734 c0 -54 16 -50 22 5 2 21 -2 36 -9 38 -9 3 -13 -9 -13 -43z"/>
<path d="M10830 4737 c0 -23 5 -34 15 -34 10 0 15 11 15 34 0 23 -5 33 -15 33
-10 0 -15 -10 -15 -33z"/>
<path d="M5390 4726 c0 -36 17 -41 22 -6 3 20 0 30 -9 30 -7 0 -13 -11 -13
-24z"/>
<path d="M5511 4722 c2 -15 0 -33 -4 -40 -5 -7 -3 -12 7 -12 12 0 16 10 16 40
0 22 -5 40 -11 40 -6 0 -9 -12 -8 -28z"/>
<path d="M10738 4703 c6 -2 18 -2 25 0 6 3 1 5 -13 5 -14 0 -19 -2 -12 -5z"/>
<path d="M5256 4655 c4 -8 12 -15 20 -15 8 0 14 7 14 15 0 8 -9 15 -20 15 -13
0 -18 -5 -14 -15z"/>
<path d="M5626 4621 c-4 -5 -2 -12 3 -15 5 -4 12 -2 15 3 4 5 2 12 -3 15 -5 4
-12 2 -15 -3z"/>
<path d="M5144 4596 c-9 -25 0 -61 16 -61 10 0 16 12 18 38 2 28 0 37 -13 37
-8 0 -18 -6 -21 -14z"/>
<path d="M10740 4564 c0 -45 24 -42 28 4 2 24 -1 32 -12 32 -12 0 -16 -10 -16
-36z"/>
<path d="M10850 4564 c0 -21 4 -33 10 -29 6 3 10 19 10 36 0 16 -4 29 -10 29
-5 0 -10 -16 -10 -36z"/>
<path d="M5380 4565 c0 -16 6 -25 15 -25 9 0 15 9 15 25 0 16 -6 25 -15 25 -9
0 -15 -9 -15 -25z"/>
<path d="M5500 4560 c0 -13 5 -20 13 -17 6 2 12 10 12 17 0 7 -6 15 -12 18 -8
2 -13 -5 -13 -18z"/>
<path d="M5620 4511 c0 -6 5 -13 10 -16 6 -3 10 1 10 9 0 9 -4 16 -10 16 -5 0
-10 -4 -10 -9z"/>
<path d="M6093 4474 c-3 -8 -1 -20 6 -27 14 -14 47 15 37 32 -10 16 -36 13
-43 -5z"/>
<path d="M9900 4471 c0 -26 17 -36 35 -21 18 15 8 40 -16 40 -12 0 -19 -7 -19
-19z"/>
<path d="M5142 4398 c3 -61 6 -73 21 -76 16 -3 17 4 15 72 -3 65 -6 76 -21 76
-16 0 -18 -8 -15 -72z"/>
<path d="M5616 4443 c-3 -4 -6 -19 -6 -35 0 -21 5 -28 20 -28 15 0 20 7 20 29
0 27 -20 47 -34 34z"/>
<path d="M5720 4391 c0 -130 29 -335 67 -474 14 -51 18 -57 37 -51 11 4 22 8
24 9 1 1 -6 38 -17 81 -22 94 -49 283 -57 407 -6 84 -7 87 -30 87 -23 0 -24
-3 -24 -59z"/>
<path d="M5820 4416 c0 -32 3 -36 26 -36 23 0 25 3 22 33 -2 24 -8 33 -25 35
-20 3 -23 -1 -23 -32z"/>
<path d="M10850 4425 c0 -14 5 -25 10 -25 6 0 10 11 10 25 0 14 -4 25 -10 25
-5 0 -10 -11 -10 -25z"/>
<path d="M5380 4410 c0 -20 5 -30 15 -30 10 0 15 10 15 30 0 20 -5 30 -15 30
-10 0 -15 -10 -15 -30z"/>
<path d="M5490 4410 c0 -23 4 -30 20 -30 16 0 20 7 20 30 0 23 -4 30 -20 30
-16 0 -20 -7 -20 -30z"/>
<path d="M10170 4425 c0 -9 9 -15 25 -15 16 0 25 6 25 15 0 9 -9 15 -25 15
-16 0 -25 -6 -25 -15z"/>
<path d="M10740 4415 c0 -18 5 -25 20 -25 21 0 24 8 14 34 -10 25 -34 19 -34
-9z"/>
<path d="M10262 4418 c7 -19 38 -22 38 -4 0 10 -9 16 -21 16 -12 0 -19 -5 -17
-12z"/>
<path d="M10370 4420 c0 -5 11 -10 24 -10 13 0 26 -6 29 -12 2 -7 8 -10 12 -5
12 10 -4 23 -37 31 -17 4 -28 2 -28 -4z"/>
<path d="M10512 4405 c0 -16 2 -22 5 -12 2 9 2 23 0 30 -3 6 -5 -1 -5 -18z"/>
<path d="M10610 4405 c0 -16 6 -25 15 -25 9 0 15 9 15 25 0 16 -6 25 -15 25
-9 0 -15 -9 -15 -25z"/>
<path d="M5260 4295 c0 -24 5 -35 15 -35 10 0 15 11 15 35 0 24 -5 35 -15 35
-10 0 -15 -11 -15 -35z"/>
<path d="M10740 4295 c0 -24 5 -35 15 -35 10 0 15 11 15 35 0 24 -5 35 -15 35
-10 0 -15 -11 -15 -35z"/>
<path d="M10160 4306 c0 -18 42 -29 52 -13 13 21 9 27 -22 27 -19 0 -30 -5
-30 -14z"/>
<path d="M5390 4260 c0 -27 5 -50 10 -50 6 0 10 22 9 50 -1 28 -6 50 -11 50
-4 0 -8 -22 -8 -50z"/>
<path d="M5500 4271 c0 -30 4 -41 16 -41 11 0 14 9 12 37 -4 52 -28 56 -28 4z"/>
<path d="M5614 4294 c3 -9 6 -27 6 -40 0 -15 6 -24 15 -24 11 0 15 11 15 40 0
34 -3 40 -21 40 -15 0 -19 -4 -15 -16z"/>
<path d="M10250 4295 c0 -9 9 -15 25 -15 28 0 34 15 9 24 -25 10 -34 7 -34 -9z"/>
<path d="M10370 4285 c0 -18 5 -25 19 -25 12 0 20 9 23 25 4 21 1 25 -18 25
-19 0 -24 -5 -24 -25z"/>
<path d="M10500 4301 c0 -6 5 -13 10 -16 6 -3 10 1 10 9 0 9 -4 16 -10 16 -5
0 -10 -4 -10 -9z"/>
<path d="M10610 4279 c0 -11 5 -17 10 -14 6 3 10 13 10 21 0 8 -4 14 -10 14
-5 0 -10 -9 -10 -21z"/>
<path d="M5830 4280 c0 -5 9 -10 20 -10 11 0 20 5 20 10 0 6 -9 10 -20 10 -11
0 -20 -4 -20 -10z"/>
<path d="M10830 4205 c0 -24 5 -35 15 -35 10 0 15 11 15 35 0 24 -5 35 -15 35
-10 0 -15 -11 -15 -35z"/>
<path d="M10606 4223 c-12 -12 -6 -33 9 -33 8 0 15 6 15 14 0 17 -14 28 -24
19z"/>
<path d="M10496 4204 c-9 -24 -7 -54 4 -54 6 0 10 16 10 35 0 38 -4 44 -14 19z"/>
<path d="M5262 4188 c3 -7 13 -15 22 -16 12 -3 17 1 14 10 -3 7 -13 15 -22 16
-12 3 -17 -1 -14 -10z"/>
<path d="M10147 4184 c-11 -12 3 -24 29 -24 15 0 24 6 24 15 0 15 -40 21 -53
9z"/>
<path d="M10730 4160 c0 -20 5 -30 15 -30 10 0 15 10 15 30 0 20 -5 30 -15 30
-10 0 -15 -10 -15 -30z"/>
<path d="M5845 4170 c-11 -18 5 -50 26 -50 16 0 20 6 17 27 -3 28 -31 43 -43
23z"/>
<path d="M10240 4160 c0 -5 12 -10 26 -10 14 0 23 4 19 10 -3 6 -15 10 -26 10
-10 0 -19 -4 -19 -10z"/>
<path d="M5400 4111 c0 -23 5 -41 10 -41 6 0 10 15 10 34 0 19 -4 38 -10 41
-6 4 -10 -10 -10 -34z"/>
<path d="M5638 4145 c-8 -14 2 -65 13 -65 10 0 10 14 0 50 -4 14 -10 20 -13
15z"/>
<path d="M10590 4140 c0 -5 5 -10 10 -10 6 0 10 5 10 10 0 6 -4 10 -10 10 -5
0 -10 -4 -10 -10z"/>
<path d="M5513 4119 c4 -13 7 -27 7 -31 0 -5 5 -8 11 -8 15 0 6 53 -10 58 -10
4 -12 -1 -8 -19z"/>
<path d="M10353 4133 c9 -2 23 -2 30 0 6 3 -1 5 -18 5 -16 0 -22 -2 -12 -5z"/>
<path d="M5266 4092 c-8 -13 11 -35 23 -28 16 10 14 36 -3 36 -8 0 -17 -4 -20
-8z"/>
<path d="M5181 4058 c2 -52 12 -79 27 -69 18 11 6 101 -14 101 -9 0 -14 -11
-13 -32z"/>
<path d="M10481 4074 c0 -11 3 -14 6 -6 3 7 2 16 -1 19 -3 4 -6 -2 -5 -13z"/>
<path d="M10590 4054 c0 -8 5 -12 10 -9 6 3 10 10 10 16 0 5 -4 9 -10 9 -5 0
-10 -7 -10 -16z"/>
<path d="M10120 4051 c0 -10 24 -21 46 -21 8 0 14 7 14 15 0 10 -10 15 -30 15
-16 0 -30 -4 -30 -9z"/>
<path d="M5285 4031 c-6 -11 9 -23 19 -14 9 9 7 23 -3 23 -6 0 -12 -4 -16 -9z"/>
<path d="M10210 4026 c0 -11 10 -16 31 -16 38 0 35 24 -4 28 -19 2 -27 -1 -27
-12z"/>
<path d="M5880 4018 c1 -34 14 -58 32 -58 14 0 18 5 14 16 -3 9 -6 24 -6 35 0
12 -7 19 -20 19 -11 0 -20 -6 -20 -12z"/>
<path d="M10320 4021 c0 -6 12 -16 26 -21 33 -13 34 -13 34 5 0 8 -6 15 -14
15 -8 0 -21 3 -30 6 -9 3 -16 1 -16 -5z"/>
<path d="M5656 4011 c-9 -15 3 -71 15 -71 11 0 12 50 0 69 -6 9 -10 10 -15 2z"/>
<path d="M5530 3996 c0 -9 7 -16 16 -16 9 0 14 5 12 12 -6 18 -28 21 -28 4z"/>
<path d="M10460 3990 c0 -5 5 -10 10 -10 6 0 10 5 10 10 0 6 -4 10 -10 10 -5
0 -10 -4 -10 -10z"/>
<path d="M10576 3991 c-4 -7 -5 -15 -2 -18 9 -9 19 4 14 18 -4 11 -6 11 -12 0z"/>
<path d="M10797 3983 c-12 -11 -8 -23 8 -23 8 0 15 7 15 15 0 16 -12 20 -23 8z"/>
<path d="M5420 3965 c0 -8 7 -15 15 -15 8 0 15 7 15 15 0 8 -7 15 -15 15 -8 0
-15 -7 -15 -15z"/>
<path d="M5297 3954 c-8 -8 1 -24 14 -24 5 0 9 7 9 15 0 15 -12 20 -23 9z"/>
<path d="M10090 3926 c0 -20 40 -32 51 -15 5 9 2 16 -9 21 -28 11 -42 9 -42
-6z"/>
<path d="M10450 3929 c0 -5 5 -7 10 -4 6 3 10 8 10 11 0 2 -4 4 -10 4 -5 0
-10 -5 -10 -11z"/>
<path d="M5545 3920 c-4 -6 5 -10 20 -10 15 0 24 4 20 10 -3 6 -12 10 -20 10
-8 0 -17 -4 -20 -10z"/>
<path d="M5436 3911 c-8 -12 3 -41 15 -41 12 0 12 37 0 45 -5 3 -12 1 -15 -4z"/>
<path d="M10565 3897 c-4 -10 -5 -21 -1 -24 10 -10 18 4 13 24 -4 17 -4 17
-12 0z"/>
<path d="M10338 3893 c7 -3 16 -2 19 1 4 3 -2 6 -13 5 -11 0 -14 -3 -6 -6z"/>
<path d="M5691 3881 c-10 -7 -11 -18 -4 -47 12 -51 39 -54 35 -4 -5 46 -14 61
-31 51z"/>
<path d="M10180 3875 c0 -9 9 -15 25 -15 28 0 34 15 9 24 -25 10 -34 7 -34 -9z"/>
<path d="M5310 3870 c0 -5 7 -10 15 -10 8 0 15 5 15 10 0 6 -7 10 -15 10 -8 0
-15 -4 -15 -10z"/>
<path d="M5900 3870 c0 -5 9 -10 20 -10 11 0 20 5 20 10 0 6 -9 10 -20 10 -11
0 -20 -4 -20 -10z"/>
<path d="M5566 3862 c-8 -13 20 -96 34 -100 9 -3 11 3 6 23 -4 15 -10 40 -13
56 -5 28 -17 37 -27 21z"/>
<path d="M10430 3860 c0 -5 5 -10 10 -10 6 0 10 5 10 10 0 6 -4 10 -10 10 -5
0 -10 -4 -10 -10z"/>
<path d="M10315 3850 c3 -5 13 -10 21 -10 8 0 12 5 9 10 -3 6 -13 10 -21 10
-8 0 -12 -4 -9 -10z"/>
<path d="M5937 3822 c-9 -2 -15 -8 -12 -13 8 -12 45 -12 45 0 0 13 -12 18 -33
13z"/>
<path d="M10067 3808 c-8 -29 14 -43 31 -21 15 21 11 37 -10 41 -9 2 -18 -6
-21 -20z"/>
<path d="M10540 3820 c0 -5 5 -10 10 -10 6 0 10 5 10 10 0 6 -4 10 -10 10 -5
0 -10 -4 -10 -10z"/>
<path d="M5333 3813 c-14 -5 -18 -39 -5 -47 4 -2 14 -1 20 3 16 10 2 50 -15
44z"/>
<path d="M5234 3773 c3 -10 8 -30 12 -45 3 -16 12 -28 20 -28 17 0 17 2 2 51
-6 22 -18 39 -25 39 -9 0 -12 -7 -9 -17z"/>
<path d="M5840 3780 c-18 -11 -1 -74 23 -78 20 -4 22 14 4 56 -9 22 -17 28
-27 22z"/>
<path d="M10400 3780 c0 -5 4 -10 9 -10 6 0 13 5 16 10 3 6 -1 10 -9 10 -9 0
-16 -4 -16 -10z"/>
<path d="M5470 3761 c0 -11 5 -23 10 -26 6 -4 10 5 10 19 0 14 -4 26 -10 26
-5 0 -10 -9 -10 -19z"/>
<path d="M10300 3765 c0 -16 16 -20 24 -6 3 5 -1 11 -9 15 -9 3 -15 0 -15 -9z"/>
<path d="M5954 3746 c-3 -7 1 -27 8 -44 9 -23 17 -29 27 -23 11 7 11 15 0 45
-14 38 -26 46 -35 22z"/>
<path d="M10150 3740 c0 -5 9 -10 20 -10 11 0 20 5 20 10 0 6 -9 10 -20 10
-11 0 -20 -4 -20 -10z"/>
<path d="M10277 3714 c-8 -8 1 -24 14 -24 5 0 9 7 9 15 0 15 -12 20 -23 9z"/>
<path d="M10030 3690 c0 -5 7 -10 15 -10 8 0 15 5 15 10 0 6 -7 10 -15 10 -8
0 -15 -4 -15 -10z"/>
<path d="M10382 3680 c-14 -23 -16 -50 -3 -50 5 0 11 8 14 18 2 9 8 25 12 35
10 23 -7 22 -23 -3z"/>
<path d="M10640 3690 c0 -5 7 -10 15 -10 8 0 15 5 15 10 0 6 -7 10 -15 10 -8
0 -15 -4 -15 -10z"/>
<path d="M5352 3679 c2 -6 8 -10 13 -10 5 0 11 4 13 10 2 6 -4 11 -13 11 -9 0
-15 -5 -13 -11z"/>
<path d="M5616 3658 c11 -39 19 -47 32 -39 10 6 10 15 3 34 -13 34 -46 38 -35
5z"/>
<path d="M5750 3670 c0 -5 5 -10 10 -10 6 0 10 5 10 10 0 6 -4 10 -10 10 -5 0
-10 -4 -10 -10z"/>
<path d="M10486 3673 c-9 -9 -7 -33 3 -33 12 0 22 28 12 34 -5 3 -11 3 -15 -1z"/>
<path d="M5504 3628 c6 -33 22 -56 31 -47 7 8 -17 79 -28 79 -5 0 -7 -14 -3
-32z"/>
<path d="M5880 3653 c1 -18 18 -35 24 -24 4 6 4 16 1 21 -7 12 -25 13 -25 3z"/>
<path d="M10000 3635 c0 -8 2 -15 4 -15 2 0 11 -3 20 -6 23 -9 20 13 -4 26
-16 9 -20 8 -20 -5z"/>
<path d="M10110 3631 c-14 -27 -13 -41 4 -41 12 0 25 28 26 53 0 14 -20 7 -30
-12z"/>
<path d="M5276 3631 c-9 -15 15 -71 31 -71 10 0 13 6 9 20 -3 11 -9 29 -12 40
-6 21 -19 26 -28 11z"/>
<path d="M5380 3620 c-8 -5 -12 -11 -9 -14 2 -3 11 -1 19 4 8 5 12 11 9 14 -2
3 -11 1 -19 -4z"/>
<path d="M6003 3623 c-7 -2 -13 -9 -13 -15 0 -12 41 -6 41 7 1 12 -11 15 -28
8z"/>
<path d="M10212 3587 c-17 -46 -15 -57 9 -57 26 0 58 68 37 81 -23 15 -34 10
-46 -24z"/>
<path d="M10460 3600 c0 -5 5 -10 10 -10 6 0 10 5 10 10 0 6 -4 10 -10 10 -5
0 -10 -4 -10 -10z"/>
<path d="M5786 3558 c3 -13 10 -30 15 -38 7 -13 8 -13 9 0 0 27 -12 60 -22 60
-5 0 -6 -10 -2 -22z"/>
<path d="M10600 3571 c0 -14 18 -23 31 -15 8 4 7 9 -2 15 -18 11 -29 11 -29 0z"/>
<path d="M10697 3553 c-3 -16 -8 -38 -12 -50 -13 -40 12 -25 29 17 20 49 20
60 2 60 -7 0 -16 -12 -19 -27z"/>
<path d="M9962 3545 c-9 -20 -9 -25 2 -25 18 0 39 27 31 40 -10 16 -21 12 -33
-15z"/>
<path d="M10332 3541 c-10 -28 -7 -41 9 -41 6 0 29 53 29 66 0 2 -6 4 -14 4
-8 0 -19 -13 -24 -29z"/>
<path d="M5670 3528 c0 -30 13 -58 26 -58 17 0 18 11 2 45 -12 26 -28 34 -28
13z"/>
<path d="M5930 3520 c0 -5 7 -10 15 -10 8 0 15 5 15 10 0 6 -7 10 -15 10 -8 0
-15 -4 -15 -10z"/>
<path d="M6051 3517 c-6 -8 -8 -17 -5 -20 10 -9 45 13 39 24 -9 13 -21 11 -34
-4z"/>
<path d="M6406 3511 c-10 -16 6 -42 23 -39 9 2 17 13 19 26 3 16 -2 22 -17 22
-11 0 -22 -4 -25 -9z"/>
<path d="M9584 3505 c-4 -9 -2 -21 4 -27 15 -15 44 -1 40 19 -4 23 -36 29 -44
8z"/>
<path d="M10044 3489 c-10 -21 -12 -35 -6 -41 7 -7 16 0 26 20 9 17 16 36 16
42 0 21 -20 9 -36 -21z"/>
<path d="M10422 3498 c2 -12 8 -23 14 -25 17 -6 27 29 12 39 -22 13 -30 9 -26
-14z"/>
<path d="M5566 3485 c4 -8 10 -15 15 -15 5 0 9 7 9 15 0 8 -7 15 -15 15 -9 0
-12 -6 -9 -15z"/>
<path d="M5320 3470 c0 -11 7 -20 15 -20 8 0 15 9 15 20 0 11 -7 20 -15 20 -8
0 -15 -9 -15 -20z"/>
<path d="M6085 3471 c-9 -16 2 -45 25 -66 32 -29 41 -8 14 33 -32 46 -31 45
-39 33z"/>
<path d="M10155 3451 c-8 -17 -11 -32 -6 -35 11 -7 26 11 35 42 11 32 -11 27
-29 -7z"/>
<path d="M10557 3458 c-2 -13 -8 -31 -12 -40 -5 -12 -3 -18 7 -18 15 0 38 40
38 65 0 24 -27 17 -33 -7z"/>
<path d="M9915 3459 c-10 -15 1 -23 20 -15 9 3 13 10 10 16 -8 13 -22 13 -30
-1z"/>
<path d="M5440 3446 c0 -29 31 -89 41 -79 7 7 4 24 -7 52 -16 40 -34 55 -34
27z"/>
<path d="M5840 3440 c0 -5 5 -10 10 -10 6 0 10 5 10 10 0 6 -4 10 -10 10 -5 0
-10 -4 -10 -10z"/>
<path d="M5995 3401 c22 -44 45 -73 45 -56 0 15 -52 105 -60 105 -6 0 1 -22
15 -49z"/>
<path d="M10236 3363 c-15 -32 -41 -77 -57 -101 -35 -52 -35 -59 -7 -68 26 -8
32 0 94 119 37 71 43 91 33 98 -26 16 -35 9 -63 -48z"/>
<path d="M5874 3387 c3 -10 6 -23 6 -28 0 -5 5 -9 10 -9 14 0 12 13 -6 36 -14
17 -15 17 -10 1z"/>
<path d="M9880 3390 c0 -5 7 -10 15 -10 8 0 15 5 15 10 0 6 -7 10 -15 10 -8 0
-15 -4 -15 -10z"/>
<path d="M5735 3373 c4 -10 10 -26 12 -35 3 -10 9 -18 14 -18 12 0 11 11 -3
43 -14 29 -35 38 -23 10z"/>
<path d="M9968 3356 c-19 -24 -24 -37 -16 -42 14 -9 48 31 48 57 0 25 0 25
-32 -15z"/>
<path d="M10295 3257 c-95 -194 -236 -392 -397 -563 -67 -70 -67 -71 -48 -89
19 -17 22 -16 92 56 152 156 293 354 415 585 56 107 61 135 21 133 -19 -1 -33
-21 -83 -122z"/>
<path d="M5620 3355 c0 -8 5 -15 10 -15 6 0 10 7 10 15 0 8 -4 15 -10 15 -5 0
-10 -7 -10 -15z"/>
<path d="M6151 3346 c-8 -10 -9 -16 -1 -21 5 -3 13 1 16 10 9 22 -1 29 -15 11z"/>
<path d="M10095 3349 c-4 -6 -1 -15 6 -20 21 -13 31 -11 27 8 -4 20 -24 28
-33 12z"/>
<path d="M9826 3315 c-21 -33 -11 -53 15 -29 20 18 25 39 10 48 -5 3 -16 -6
-25 -19z"/>
<path d="M10502 3328 c5 -15 28 -18 29 -3 0 6 -7 12 -17 13 -10 3 -15 -1 -12
-10z"/>
<path d="M10577 3288 c-16 -27 -16 -33 -3 -46 12 -13 17 -10 35 25 11 23 17
43 14 47 -13 13 -29 5 -46 -26z"/>
<path d="M5640 3300 c0 -5 5 -10 10 -10 6 0 10 5 10 10 0 6 -4 10 -10 10 -5 0
-10 -4 -10 -10z"/>
<path d="M5514 3276 c-3 -8 0 -24 6 -36 9 -17 14 -19 25 -10 12 10 12 15 -2
36 -18 28 -22 29 -29 10z"/>
<path d="M5922 3270 c13 -20 28 -27 28 -12 0 10 -22 32 -32 32 -5 0 -3 -9 4
-20z"/>
<path d="M10062 3278 c3 -7 15 -15 27 -16 16 -3 22 1 19 10 -3 7 -15 15 -27
16 -16 3 -22 -1 -19 -10z"/>
<path d="M9910 3264 c-9 -10 -10 -18 -2 -26 12 -12 32 -2 32 17 0 21 -16 26
-30 9z"/>
<path d="M5790 3260 c0 -5 5 -10 10 -10 6 0 10 5 10 10 0 6 -4 10 -10 10 -5 0
-10 -4 -10 -10z"/>
<path d="M6076 3262 c-8 -13 30 -59 41 -49 3 4 0 13 -9 20 -9 6 -18 19 -20 27
-3 10 -6 11 -12 2z"/>
<path d="M5675 3250 c-4 -6 -2 -17 4 -23 15 -15 25 -2 13 19 -7 12 -11 13 -17
4z"/>
<path d="M6216 3241 c-3 -4 3 -16 13 -25 22 -20 40 -4 21 19 -14 17 -26 19
-34 6z"/>
<path d="M5430 3231 c0 -5 5 -22 10 -36 8 -22 13 -25 25 -15 12 10 12 15 -2
36 -15 24 -33 32 -33 15z"/>
<path d="M9755 3211 c-6 -11 9 -23 19 -14 9 9 7 23 -3 23 -6 0 -12 -4 -16 -9z"/>
<path d="M10450 3200 c0 -22 7 -25 29 -11 16 10 6 31 -15 31 -8 0 -14 -9 -14
-20z"/>
<path d="M5835 3190 c3 -5 8 -10 11 -10 2 0 4 5 4 10 0 6 -5 10 -11 10 -5 0
-7 -4 -4 -10z"/>
<path d="M10003 3173 c9 -9 19 -14 23 -11 10 10 -6 28 -24 28 -15 0 -15 -1 1
-17z"/>
<path d="M5710 3170 c0 -5 5 -10 10 -10 6 0 10 5 10 10 0 6 -4 10 -10 10 -5 0
-10 -4 -10 -10z"/>
<path d="M5980 3170 c0 -5 5 -10 10 -10 6 0 10 5 10 10 0 6 -4 10 -10 10 -5 0
-10 -4 -10 -10z"/>
<path d="M6140 3170 c0 -5 5 -10 11 -10 5 0 7 5 4 10 -3 6 -8 10 -11 10 -2 0
-4 -4 -4 -10z"/>
<path d="M10522 3147 c-15 -40 -6 -48 18 -17 23 30 24 36 7 43 -8 3 -18 -7
-25 -26z"/>
<path d="M9840 3160 c0 -5 5 -10 10 -10 6 0 10 5 10 10 0 6 -4 10 -10 10 -5 0
-10 -4 -10 -10z"/>
<path d="M6271 3146 c-15 -18 -2 -27 27 -19 18 4 20 8 11 19 -15 18 -24 18
-38 0z"/>
<path d="M6022 3123 c2 -9 9 -18 16 -21 18 -6 15 25 -4 32 -11 4 -14 1 -12
-11z"/>
<path d="M9690 3116 c0 -9 7 -16 16 -16 17 0 14 22 -4 28 -7 2 -12 -3 -12 -12z"/>
<path d="M5880 3109 c0 -5 5 -7 10 -4 6 3 10 8 10 11 0 2 -4 4 -10 4 -5 0 -10
-5 -10 -11z"/>
<path d="M10382 3109 c2 -6 8 -10 13 -10 5 0 11 4 13 10 2 6 -4 11 -13 11 -9
0 -15 -5 -13 -11z"/>
<path d="M5757 3104 c-8 -8 3 -34 14 -34 11 0 12 27 0 34 -4 3 -11 3 -14 0z"/>
<path d="M5507 3093 c-12 -11 -8 -23 8 -23 8 0 15 7 15 15 0 16 -12 20 -23 8z"/>
<path d="M6190 3094 c0 -19 24 -44 42 -44 21 0 21 0 -2 25 -22 23 -40 32 -40
19z"/>
<path d="M9771 3082 c-13 -25 2 -38 19 -16 9 10 10 18 3 25 -8 8 -14 5 -22 -9z"/>
<path d="M9920 3085 c0 -12 28 -35 44 -35 13 0 5 24 -11 36 -23 18 -33 17 -33
-1z"/>
<path d="M6350 3083 c0 -5 7 -17 15 -27 8 -11 15 -28 15 -38 0 -10 6 -18 14
-18 25 0 25 26 -1 58 -23 30 -43 42 -43 25z"/>
<path d="M10076 3083 c-11 -11 -6 -23 9 -23 8 0 15 4 15 9 0 13 -16 22 -24 14z"/>
<path d="M5912 3068 c3 -7 13 -15 23 -17 17 -3 17 -2 3 13 -20 19 -31 21 -26
4z"/>
<path d="M9620 3045 c0 -17 2 -18 24 -9 23 9 20 24 -4 24 -11 0 -20 -7 -20
-15z"/>
<path d="M6095 3020 c-3 -5 0 -19 8 -30 13 -18 16 -19 27 -5 10 12 10 18 0 30
-14 17 -26 19 -35 5z"/>
<path d="M9855 2994 c-26 -34 -26 -37 -11 -52 16 -16 20 -14 51 22 30 36 32
41 17 53 -24 18 -27 17 -57 -23z"/>
<path d="M6265 3004 c-17 -13 -17 -14 2 -45 49 -77 286 -296 438 -405 140
-100 467 -267 486 -247 4 4 9 16 11 26 2 14 -22 30 -122 75 -253 116 -440 249
-651 462 -131 132 -148 146 -164 134z"/>
<path d="M9962 2946 c-59 -73 -60 -74 -41 -92 10 -9 21 -15 23 -13 2 2 32 38
65 79 56 68 60 76 44 87 -9 7 -20 13 -23 13 -4 0 -34 -33 -68 -74z"/>
<path d="M5815 3000 c-3 -5 1 -10 9 -10 9 0 16 5 16 10 0 6 -4 10 -9 10 -6 0
-13 -4 -16 -10z"/>
<path d="M5965 2990 c-3 -5 1 -10 10 -10 9 0 13 5 10 10 -3 6 -8 10 -10 10 -2
0 -7 -4 -10 -10z"/>
<path d="M9680 2985 c0 -8 5 -15 10 -15 6 0 10 7 10 15 0 8 -4 15 -10 15 -5 0
-10 -7 -10 -15z"/>
<path d="M10306 2966 c-18 -29 -4 -36 21 -10 10 10 12 19 6 25 -7 7 -16 1 -27
-15z"/>
<path d="M6450 2965 c-15 -18 -14 -20 22 -29 27 -6 27 -5 16 19 -13 29 -21 31
-38 10z"/>
<path d="M5593 2963 c-16 -6 -17 -29 -3 -38 15 -9 40 14 33 31 -5 15 -10 16
-30 7z"/>
<path d="M6020 2940 c-12 -7 -12 -12 -2 -22 9 -9 15 -9 24 0 16 16 -2 34 -22
22z"/>
<path d="M6169 2930 l-23 -18 39 -49 c166 -207 496 -462 765 -591 295 -141
597 -216 953 -236 l87 -5 0 29 c0 26 -4 30 -27 30 -63 0 -274 22 -358 36 -267
47 -536 140 -745 259 -202 114 -448 313 -600 486 -67 76 -67 76 -91 59z"/>
<path d="M9607 2910 c-3 -11 -2 -20 2 -20 5 0 16 9 26 20 18 19 17 20 -2 20
-12 0 -23 -8 -26 -20z"/>
<path d="M10370 2915 c-10 -12 -10 -19 -1 -28 9 -9 14 -9 21 3 22 34 4 54 -20
25z"/>
<path d="M9475 2880 c4 -6 11 -8 16 -5 14 9 11 15 -7 15 -8 0 -12 -5 -9 -10z"/>
<path d="M5915 2871 c-10 -17 15 -45 29 -31 7 7 5 15 -6 26 -11 11 -18 13 -23
5z"/>
<path d="M6096 2864 c-9 -6 -16 -16 -16 -21 0 -20 150 -181 251 -269 318 -277
619 -444 990 -548 183 -51 473 -96 632 -96 34 0 37 2 37 29 l0 28 -112 6
c-481 25 -947 195 -1351 494 -56 42 -172 146 -259 232 -132 132 -159 155 -172
145z"/>
<path d="M6530 2865 c-7 -8 -10 -18 -7 -21 9 -10 48 7 44 19 -6 18 -23 19 -37
2z"/>
<path d="M9530 2845 c-18 -21 -3 -32 16 -13 10 9 12 18 6 22 -5 3 -15 -1 -22
-9z"/>
<path d="M10240 2845 c-10 -12 -10 -19 -2 -27 9 -9 16 -7 27 8 8 10 15 22 15
27 0 13 -27 7 -40 -8z"/>
<path d="M9406 2824 c-13 -13 -15 -19 -6 -22 15 -5 33 13 28 28 -3 9 -9 7 -22
-6z"/>
<path d="M6596 2805 c-9 -13 -12 -26 -7 -29 5 -3 11 1 15 9 3 8 12 15 21 15
19 0 20 16 1 23 -8 3 -21 -4 -30 -18z"/>
<path d="M9846 2812 c-3 -6 -1 -14 5 -17 15 -10 25 3 12 16 -7 7 -13 7 -17 1z"/>
<path d="M5989 2774 c-14 -17 -12 -20 24 -29 32 -9 38 13 8 32 -16 10 -22 9
-32 -3z"/>
<path d="M9430 2759 c0 -18 2 -19 15 -9 8 7 15 16 15 21 0 5 -7 9 -15 9 -9 0
-15 -9 -15 -21z"/>
<path d="M6640 2745 c0 -8 5 -15 11 -15 7 0 17 -8 24 -17 11 -15 13 -15 24 6
15 27 7 39 -14 21 -12 -10 -16 -9 -21 4 -8 20 -24 21 -24 1z"/>
<path d="M9302 2748 c-16 -16 -15 -28 2 -28 7 0 16 9 19 20 6 23 -3 26 -21 8z"/>
<path d="M9640 2730 c0 -5 5 -10 10 -10 6 0 10 5 10 10 0 6 -4 10 -10 10 -5 0
-10 -4 -10 -10z"/>
<path d="M6730 2695 c-6 -8 -8 -20 -4 -26 5 -9 11 -7 21 6 23 33 9 51 -17 20z"/>
<path d="M9340 2690 c0 -5 7 -10 16 -10 8 0 12 5 9 10 -3 6 -10 10 -16 10 -5
0 -9 -4 -9 -10z"/>
<path d="M9207 2683 c-12 -11 -8 -23 8 -23 8 0 15 7 15 15 0 16 -12 20 -23 8z"/>
<path d="M9546 2654 c-46 -37 -58 -61 -14 -31 48 34 72 56 67 61 -3 3 -27 -10
-53 -30z"/>
<path d="M9740 2670 c0 -5 5 -10 10 -10 6 0 10 5 10 10 0 6 -4 10 -10 10 -5 0
-10 -4 -10 -10z"/>
<path d="M6066 2661 c-3 -4 1 -17 9 -27 13 -18 14 -18 32 -1 17 17 17 18 1 11
-13 -4 -18 -1 -18 10 0 17 -15 22 -24 7z"/>
<path d="M6802 2658 c-14 -14 -16 -38 -3 -38 5 0 14 7 21 15 17 20 0 41 -18
23z"/>
<path d="M10105 2649 c-11 -16 34 -54 48 -40 8 8 5 16 -11 31 -24 23 -28 24
-37 9z"/>
<path d="M6846 2637 c3 -8 1 -18 -5 -22 -6 -3 -11 -11 -11 -17 0 -7 6 -6 15 2
17 14 20 36 5 45 -5 3 -7 0 -4 -8z"/>
<path d="M9235 2629 c-4 -6 -5 -12 -2 -15 7 -7 37 7 37 17 0 13 -27 11 -35 -2z"/>
<path d="M9110 2615 c0 -8 5 -15 10 -15 6 0 10 7 10 15 0 8 -4 15 -10 15 -5 0
-10 -7 -10 -15z"/>
<path d="M9680 2615 c0 -8 5 -15 10 -15 6 0 10 7 10 15 0 8 -4 15 -10 15 -5 0
-10 -7 -10 -15z"/>
<path d="M8007 2614 c-16 -16 -7 -44 14 -44 15 0 20 5 17 22 -3 22 -19 33 -31
22z"/>
<path d="M6164 2599 c-3 -6 5 -23 19 -37 22 -22 28 -23 42 -12 15 12 14 16 -9
37 -28 25 -41 29 -52 12z"/>
<path d="M6893 2585 c-6 -14 -7 -27 -3 -30 12 -8 34 35 23 46 -4 4 -13 -3 -20
-16z"/>
<path d="M6002 2588 c3 -7 13 -15 24 -17 16 -3 17 -1 5 13 -16 19 -34 21 -29
4z"/>
<path d="M9424 2559 c-22 -17 -58 -42 -81 -56 -24 -14 -43 -29 -43 -35 0 -5
17 0 38 13 46 27 142 98 142 104 0 12 -20 3 -56 -26z"/>
<path d="M9140 2564 c0 -17 22 -14 28 4 2 7 -3 12 -12 12 -9 0 -16 -7 -16 -16z"/>
<path d="M5925 2560 c-7 -12 16 -50 32 -50 21 0 25 21 7 41 -19 21 -30 24 -39
9z"/>
<path d="M9010 2554 c0 -17 22 -14 28 4 2 7 -3 12 -12 12 -9 0 -16 -7 -16 -16z"/>
<path d="M9590 2550 c-19 -14 -22 -22 -14 -30 9 -9 18 -8 38 5 26 17 30 36 10
42 -5 1 -20 -6 -34 -17z"/>
<path d="M6956 2544 c-9 -24 3 -32 15 -11 12 21 29 13 29 -13 0 -25 18 -36 26
-16 4 10 -3 24 -17 36 -29 24 -45 25 -53 4z"/>
<path d="M8916 2523 c-11 -11 -6 -23 9 -23 8 0 15 4 15 9 0 13 -16 22 -24 14z"/>
<path d="M9047 2516 c-10 -8 -14 -17 -9 -20 15 -9 42 4 42 20 0 17 -10 17 -33
0z"/>
<path d="M10023 2514 c-9 -23 13 -40 32 -24 12 10 13 16 4 26 -15 18 -28 18
-36 -2z"/>
<path d="M6085 2511 c-3 -5 -1 -12 4 -15 5 -3 11 1 15 9 6 16 -9 21 -19 6z"/>
<path d="M6267 2503 c-13 -13 -7 -32 14 -44 29 -15 45 8 22 33 -17 19 -26 22
-36 11z"/>
<path d="M7060 2490 c0 -19 36 -47 47 -36 3 3 -2 8 -11 12 -23 9 -20 27 4 19
24 -7 27 10 4 19 -29 11 -44 6 -44 -14z"/>
<path d="M6120 2476 c0 -9 7 -16 16 -16 17 0 14 22 -4 28 -7 2 -12 -3 -12 -12z"/>
<path d="M9433 2437 c-86 -60 -86 -89 -1 -38 88 53 102 66 86 78 -10 8 -31 -2
-85 -40z"/>
<path d="M7157 2453 c-3 -15 -3 -30 -1 -32 6 -7 34 33 31 43 -7 22 -25 15 -30
-11z"/>
<path d="M8812 2448 c3 -32 2 -33 -67 -55 -38 -13 -85 -26 -102 -29 -29 -5
-33 -4 -33 15 0 11 -5 21 -11 21 -7 0 -9 -10 -5 -25 5 -21 2 -25 -31 -34 -53
-15 -63 -14 -63 9 0 12 -7 20 -16 20 -12 0 -15 -6 -10 -24 6 -26 4 -28 -62
-41 -31 -6 -33 -5 -28 13 8 26 -12 40 -21 15 -17 -44 -96 -62 -106 -23 -7 29
-39 26 -35 -2 3 -22 -1 -23 -59 -26 -60 -3 -63 -4 -63 -28 l0 -26 93 7 c151
10 294 34 432 72 232 63 291 96 235 131 -11 7 -20 19 -20 27 0 8 -7 15 -15 15
-11 0 -14 -9 -13 -32z"/>
<path d="M8935 2470 c-3 -5 -4 -14 0 -20 8 -13 35 -1 35 16 0 16 -26 19 -35 4z"/>
<path d="M9653 2456 c-31 -20 -38 -36 -17 -43 5 -2 23 8 39 21 41 33 22 52
-22 22z"/>
<path d="M6021 2456 c-9 -11 -6 -17 14 -30 34 -22 50 -11 28 19 -21 28 -27 30
-42 11z"/>
<path d="M6167 2444 c-8 -8 1 -24 14 -24 5 0 9 7 9 15 0 15 -12 20 -23 9z"/>
<path d="M7216 2424 c-9 -22 3 -32 14 -14 12 19 12 30 1 30 -5 0 -12 -7 -15
-16z"/>
<path d="M8706 2416 c3 -9 11 -16 16 -16 13 0 5 23 -10 28 -7 2 -10 -2 -6 -12z"/>
<path d="M9117 2408 c-26 -19 -28 -38 -4 -38 7 0 22 9 35 18 19 15 21 20 10
29 -10 9 -20 6 -41 -9z"/>
<path d="M9806 2408 c-15 -14 -17 -21 -8 -30 9 -9 16 -7 32 7 11 10 20 21 20
25 0 17 -26 16 -44 -2z"/>
<path d="M7295 2399 c-10 -30 -2 -32 12 -3 6 13 7 24 3 24 -5 0 -12 -9 -15
-21z"/>
<path d="M6220 2401 c0 -6 5 -13 10 -16 6 -3 10 1 10 9 0 9 -4 16 -10 16 -5 0
-10 -4 -10 -9z"/>
<path d="M6392 2393 c5 -25 28 -28 28 -4 0 12 -6 21 -16 21 -9 0 -14 -7 -12
-17z"/>
<path d="M9932 2398 c3 -7 13 -15 22 -16 12 -3 17 1 14 10 -3 7 -13 15 -22 16
-12 3 -17 -1 -14 -10z"/>
<path d="M6114 2368 c-7 -11 29 -48 47 -48 15 0 10 26 -9 43 -22 20 -28 21
-38 5z"/>
<path d="M7370 2370 c0 -5 7 -10 15 -10 8 0 15 5 15 10 0 6 -7 10 -15 10 -8 0
-15 -4 -15 -10z"/>
<path d="M9522 2348 c-30 -20 -40 -34 -34 -40 13 -13 95 48 86 63 -7 11 -1 13
-52 -23z"/>
<path d="M6274 2356 c-8 -22 1 -30 21 -19 15 9 15 11 1 22 -13 11 -17 10 -22
-3z"/>
<path d="M8993 2354 c-18 -8 -33 -21 -33 -29 0 -19 3 -19 50 5 65 33 49 53
-17 24z"/>
<path d="M7460 2345 c0 -8 5 -15 10 -15 6 0 10 7 10 15 0 8 -4 15 -10 15 -5 0
-10 -7 -10 -15z"/>
<path d="M9697 2335 c-20 -14 -37 -33 -37 -41 0 -11 12 -7 45 17 24 17 42 36
39 40 -7 12 -4 13 -47 -16z"/>
<path d="M9286 2335 c-11 -8 -17 -17 -14 -20 3 -3 16 3 29 14 27 23 14 28 -15
6z"/>
<path d="M6493 2325 c-3 -9 2 -22 13 -30 24 -18 29 -18 43 -1 10 11 7 17 -11
30 -28 20 -37 20 -45 1z"/>
<path d="M7545 2330 c-3 -5 1 -10 10 -10 9 0 13 5 10 10 -3 6 -8 10 -10 10 -2
0 -7 -4 -10 -10z"/>
<path d="M7251 2309 c-11 -30 -10 -31 69 -57 161 -52 330 -85 520 -102 159
-14 150 -15 150 20 0 30 -1 30 -53 30 -67 0 -275 26 -369 45 -68 15 -251 65
-290 80 -13 5 -20 1 -27 -16z"/>
<path d="M8110 2320 c0 -13 40 -13 60 0 11 7 5 10 -22 10 -21 0 -38 -4 -38
-10z"/>
<path d="M8765 2290 c-144 -50 -312 -87 -483 -105 -75 -8 -147 -15 -159 -15
-26 0 -33 -37 -8 -46 24 -10 264 16 395 42 168 34 403 111 396 131 -3 8 -6 19
-6 24 0 14 -17 10 -135 -31z"/>
<path d="M6327 2314 c-8 -8 1 -24 14 -24 5 0 9 7 9 15 0 15 -12 20 -23 9z"/>
<path d="M7655 2310 c3 -5 10 -10 16 -10 5 0 9 5 9 10 0 6 -7 10 -16 10 -8 0
-12 -4 -9 -10z"/>
<path d="M7740 2300 c0 -5 5 -10 10 -10 6 0 10 5 10 10 0 6 -4 10 -10 10 -5 0
-10 -4 -10 -10z"/>
<path d="M7865 2290 c-3 -5 1 -10 10 -10 9 0 13 5 10 10 -3 6 -8 10 -10 10 -2
0 -7 -4 -10 -10z"/>
<path d="M7937 2294 c-11 -12 3 -24 29 -24 16 0 24 5 22 13 -5 13 -40 22 -51
11z"/>
<path d="M6215 2280 c-7 -11 43 -46 52 -36 7 7 -25 46 -38 46 -4 0 -10 -4 -14
-10z"/>
<path d="M6370 2275 c0 -8 5 -15 10 -15 6 0 10 7 10 15 0 8 -4 15 -10 15 -5 0
-10 -7 -10 -15z"/>
<path d="M9170 2280 c0 -5 5 -10 10 -10 6 0 10 5 10 10 0 6 -4 10 -10 10 -5 0
-10 -4 -10 -10z"/>
<path d="M9422 2281 c2 -7 7 -12 11 -12 12 1 9 15 -3 20 -7 2 -11 -2 -8 -8z"/>
<path d="M6624 2238 c-8 -12 22 -38 43 -38 21 0 15 16 -11 34 -18 11 -27 13
-32 4z"/>
<path d="M6430 2230 c0 -15 48 -42 61 -34 8 5 4 13 -12 25 -26 20 -49 25 -49
9z"/>
<path d="M9050 2229 c0 -5 5 -7 10 -4 6 3 10 8 10 11 0 2 -4 4 -10 4 -5 0 -10
-5 -10 -11z"/>
<path d="M9325 2230 c-3 -5 -2 -10 4 -10 5 0 13 5 16 10 3 6 2 10 -4 10 -5 0
-13 -4 -16 -10z"/>
<path d="M9707 2229 c-14 -8 -16 -14 -6 -25 10 -13 14 -12 30 2 33 30 16 46
-24 23z"/>
<path d="M6326 2205 c-8 -21 24 -49 39 -34 6 6 2 17 -11 30 -19 19 -22 19 -28
4z"/>
<path d="M8980 2200 c-13 -8 -13 -10 2 -10 9 0 20 5 23 10 8 13 -5 13 -25 0z"/>
<path d="M9240 2190 c0 -5 5 -10 10 -10 6 0 10 5 10 10 0 6 -4 10 -10 10 -5 0
-10 -4 -10 -10z"/>
<path d="M6734 2178 c-8 -12 21 -38 43 -38 19 0 16 20 -4 36 -22 17 -30 17
-39 2z"/>
<path d="M8875 2165 c-23 -11 -25 -14 -10 -14 11 0 31 6 45 14 32 18 5 18 -35
0z"/>
<path d="M9178 2159 c-18 -10 -25 -29 -10 -29 4 0 18 9 32 20 27 21 10 28 -22
9z"/>
<path d="M9598 2157 c-10 -8 -13 -18 -9 -26 12 -18 53 -4 49 17 -4 21 -19 24
-40 9z"/>
<path d="M6560 2148 c0 -11 29 -37 43 -38 18 0 5 28 -18 38 -18 9 -25 9 -25 0z"/>
<path d="M8725 2119 c-33 -10 -80 -23 -104 -29 -23 -6 -41 -14 -38 -16 7 -7
199 44 211 56 13 13 3 12 -69 -11z"/>
<path d="M6853 2114 c-3 -9 0 -20 8 -25 21 -13 29 -11 29 10 0 24 -29 36 -37
15z"/>
<path d="M9110 2119 c0 -5 5 -7 10 -4 6 3 10 8 10 11 0 2 -4 4 -10 4 -5 0 -10
-5 -10 -11z"/>
<path d="M9008 2088 c-27 -9 -39 -28 -19 -28 20 0 61 20 61 30 0 12 -6 12 -42
-2z"/>
<path d="M9305 2087 c-13 -10 -15 -16 -6 -21 12 -8 41 10 41 25 0 13 -13 11
-35 -4z"/>
<path d="M9490 2076 c0 -20 13 -27 30 -15 13 8 13 10 0 19 -21 14 -30 12 -30
-4z"/>
<path d="M6960 2062 c0 -20 45 -46 61 -37 19 12 8 33 -22 44 -41 14 -39 14
-39 -7z"/>
<path d="M6700 2060 c-8 -5 -11 -12 -8 -16 10 -9 38 3 38 16 0 12 -10 13 -30
0z"/>
<path d="M8430 2050 c-12 -8 -11 -10 5 -9 11 1 31 5 45 9 24 8 24 8 -5 9 -16
0 -37 -4 -45 -9z"/>
<path d="M8340 2040 c0 -5 5 -10 10 -10 6 0 10 5 10 10 0 6 -4 10 -10 10 -5 0
-10 -4 -10 -10z"/>
<path d="M8878 2043 c-20 -5 -24 -23 -5 -23 6 1 23 7 37 15 22 12 22 14 5 13
-11 0 -28 -2 -37 -5z"/>
<path d="M6577 2026 c-6 -15 56 -60 67 -49 13 13 5 31 -21 44 -16 7 -31 15
-34 17 -4 1 -9 -4 -12 -12z"/>
<path d="M7106 2025 c-11 -29 -8 -32 72 -58 226 -76 514 -126 740 -127 l72 0
0 28 0 27 -102 3 c-214 6 -382 33 -593 94 -186 54 -181 53 -189 33z"/>
<path d="M9226 2031 c-4 -7 -5 -15 -2 -18 9 -9 19 4 14 18 -4 11 -6 11 -12 0z"/>
<path d="M6767 2023 c-12 -11 -8 -23 8 -23 8 0 15 7 15 15 0 16 -12 20 -23 8z"/>
<path d="M8123 2023 c9 -2 23 -2 30 0 6 3 -1 5 -18 5 -16 0 -22 -2 -12 -5z"/>
<path d="M8233 2023 c9 -2 25 -2 35 0 9 3 1 5 -18 5 -19 0 -27 -2 -17 -5z"/>
<path d="M9366 2015 c-14 -11 -17 -18 -9 -26 15 -15 54 6 47 26 -7 18 -14 18
-38 0z"/>
<path d="M8748 2003 c-21 -5 -24 -23 -5 -23 7 0 22 7 33 15 20 15 9 18 -28 8z"/>
<path d="M9123 1992 c-40 -15 -57 -32 -33 -32 13 0 90 39 90 45 0 8 -11 5 -57
-13z"/>
<path d="M6830 1985 c0 -8 5 -15 10 -15 6 0 10 7 10 15 0 8 -4 15 -10 15 -5 0
-10 -7 -10 -15z"/>
<path d="M9256 1965 c-18 -13 -17 -45 2 -45 20 0 43 26 36 43 -7 20 -13 21
-38 2z"/>
<path d="M6707 1963 c-13 -12 -7 -23 23 -38 36 -18 40 -19 40 -1 0 7 -11 21
-25 30 -28 18 -29 19 -38 9z"/>
<path d="M6892 1954 c4 -21 22 -23 26 -1 2 10 -3 17 -13 17 -10 0 -15 -6 -13
-16z"/>
<path d="M8620 1960 c0 -13 20 -13 40 0 12 8 9 10 -12 10 -16 0 -28 -4 -28
-10z"/>
<path d="M6940 1936 c0 -9 7 -16 16 -16 17 0 14 22 -4 28 -7 2 -12 -3 -12 -12z"/>
<path d="M8513 1933 c9 -2 23 -2 30 0 6 3 -1 5 -18 5 -16 0 -22 -2 -12 -5z"/>
<path d="M7042 1903 c4 -19 56 -39 68 -27 5 5 -9 17 -31 26 -37 16 -40 16 -37
1z"/>
<path d="M8390 1910 c0 -5 4 -10 9 -10 6 0 13 5 16 10 3 6 -1 10 -9 10 -9 0
-16 -4 -16 -10z"/>
<path d="M9136 1911 c-8 -12 3 -41 15 -41 5 0 9 11 9 25 0 25 -14 34 -24 16z"/>
<path d="M6846 1894 c-8 -20 -8 -21 27 -29 32 -8 37 10 10 31 -24 18 -30 17
-37 -2z"/>
<path d="M8130 1890 c-20 -7 -16 -8 23 -9 26 -1 47 4 47 9 0 12 -34 12 -70 0z"/>
<path d="M8860 1890 c0 -5 5 -10 10 -10 6 0 10 5 10 10 0 6 -4 10 -10 10 -5 0
-10 -4 -10 -10z"/>
<path d="M7160 1867 c0 -16 49 -41 59 -31 3 4 0 9 -7 11 -7 3 -19 11 -26 19
-18 18 -26 18 -26 1z"/>
<path d="M8762 1857 c-24 -7 -43 -16 -43 -22 1 -11 1 -11 59 0 25 4 42 13 42
21 0 16 0 16 -58 1z"/>
<path d="M9014 1846 c-14 -11 -16 -18 -8 -26 15 -15 44 -2 44 21 0 23 -9 24
-36 5z"/>
<path d="M7260 1835 c0 -9 5 -15 11 -13 6 2 11 8 11 13 0 5 -5 11 -11 13 -6 2
-11 -4 -11 -13z"/>
<path d="M8906 1821 c-9 -14 4 -41 20 -41 8 0 14 10 14 25 0 25 -23 35 -34 16z"/>
<path d="M7356 1812 c-3 -6 7 -12 22 -15 25 -5 41 -2 31 7 -12 10 -48 16 -53
8z"/>
<path d="M8572 1810 c-34 -8 -49 -17 -41 -24 8 -8 99 15 99 25 0 10 -11 10
-58 -1z"/>
<path d="M7471 1794 c0 -11 3 -14 6 -6 3 7 2 16 -1 19 -3 4 -6 -2 -5 -13z"/>
<path d="M7146 1793 c-12 -12 -6 -33 9 -33 8 0 15 6 15 14 0 17 -14 28 -24 19z"/>
<path d="M7510 1781 c0 -12 29 -23 41 -15 18 10 9 24 -16 24 -14 0 -25 -4 -25
-9z"/>
<path d="M8428 1783 c-21 -5 -24 -23 -4 -23 22 0 46 11 46 21 0 9 -13 10 -42
2z"/>
<path d="M7630 1760 c0 -5 9 -10 20 -10 11 0 20 5 20 10 0 6 -9 10 -20 10 -11
0 -20 -4 -20 -10z"/>
<path d="M8260 1755 c0 -8 5 -15 10 -15 6 0 10 7 10 15 0 8 -4 15 -10 15 -5 0
-10 -7 -10 -15z"/>
<path d="M8724 1754 c3 -9 6 -20 6 -25 0 -5 7 -9 15 -9 18 0 18 5 5 31 -13 23
-35 26 -26 3z"/>
<path d="M7750 1745 c0 -9 5 -15 11 -13 6 2 11 8 11 13 0 5 -5 11 -11 13 -6 2
-11 -4 -11 -13z"/>
<path d="M7860 1743 c0 -8 12 -13 30 -13 17 0 30 4 30 9 0 5 -13 11 -30 13
-20 3 -30 0 -30 -9z"/>
<path d="M8125 1751 c-11 -10 10 -21 41 -21 23 0 34 5 34 14 0 10 -11 14 -36
13 -19 -1 -37 -4 -39 -6z"/>
<path d="M8020 1740 c0 -5 11 -10 25 -10 14 0 25 5 25 10 0 6 -11 10 -25 10
-14 0 -25 -4 -25 -10z"/>
<path d="M7390 1706 c0 -7 14 -16 32 -20 36 -7 43 -3 35 19 -8 19 -67 21 -67
1z"/>
<path d="M8540 1706 c0 -20 12 -26 38 -19 33 8 27 33 -8 33 -19 0 -30 -5 -30
-14z"/>
<path d="M8433 1703 c-21 -8 -15 -43 7 -43 15 0 20 7 20 25 0 25 -4 28 -27 18z"/>
<path d="M8310 1664 c0 -31 23 -28 28 4 2 15 -2 22 -12 22 -11 0 -16 -9 -16
-26z"/>
<path d="M8010 1645 c0 -16 6 -25 15 -25 9 0 15 9 15 25 0 16 -6 25 -15 25 -9
0 -15 -9 -15 -25z"/>
</g>
</svg>
